<svg width="114" height="52" viewBox="0 0 114 52" fill="none" xmlns="http://www.w3.org/2000/svg">
<path d="M6.05641 -3.80206L18.2748 5.07307L6.05641 13.9516C4.76166 14.8917 3.6628 16.0804 2.82261 17.4498C1.98241 18.8192 1.41733 20.3425 1.15963 21.9327C0.901936 23.5229 0.956671 25.1488 1.32072 26.7176C1.68476 28.2864 2.35098 29.7673 3.28133 31.0758C4.21142 32.3845 5.38745 33.4952 6.74227 34.3445C8.09708 35.1937 9.60414 35.7649 11.1774 36.0254C12.7506 36.2859 14.3592 36.2305 15.9112 35.8626C17.4633 35.4946 18.9285 34.8212 20.223 33.8808L46.1595 15.0411L46.2633 14.9599L46.5177 14.767L46.762 14.5674C46.829 14.5132 46.8959 14.4591 46.9595 14.4016C47.0231 14.3441 47.157 14.229 47.2541 14.1411L47.3679 14.0328L47.7261 13.6944L47.7562 13.664C48.6054 12.7794 49.3185 11.7712 49.8719 10.6729C49.8788 10.6528 49.8877 10.6335 49.8986 10.6154C49.9723 10.4699 50.0392 10.3244 50.1062 10.1789L50.1765 10.0199L50.3171 9.6815L50.4175 9.42435L50.5045 9.18074C50.5447 9.0657 50.5849 8.94727 50.6217 8.84238L50.6719 8.67996C50.7165 8.53785 50.7567 8.39573 50.7924 8.25362C50.7924 8.21979 50.8092 8.18596 50.8192 8.15212C50.8594 7.98971 50.8962 7.81377 50.933 7.66827C50.9314 7.64461 50.9314 7.62086 50.933 7.59721C50.9665 7.42803 51 7.25885 51.0267 7.08967C51.0254 7.06375 51.0254 7.03778 51.0267 7.01186C51.0502 6.84606 51.0736 6.67351 51.0937 6.51448C51.0937 6.47726 51.0937 6.43665 51.0937 6.39943C51.0937 6.24717 51.1238 6.09492 51.1339 5.94266V5.75318C51.1339 5.6246 51.1339 5.49941 51.1506 5.37083V4.80239C51.1506 4.6772 51.1506 4.55201 51.1339 4.42343V4.23393C51.1339 4.08167 51.1071 3.92942 51.0937 3.77716C51.0937 3.73994 51.0937 3.69935 51.0937 3.66213C51.0736 3.49295 51.0502 3.32376 51.0267 3.16135C51.0249 3.13544 51.0249 3.10944 51.0267 3.08353C51 2.91435 50.9665 2.74517 50.933 2.57599C50.9314 2.55234 50.9314 2.52859 50.933 2.50493C50.8962 2.3459 50.8594 2.16658 50.8192 2.02447C50.8192 1.99063 50.8025 1.9568 50.7924 1.92297C50.7545 1.78086 50.7143 1.63874 50.6719 1.49663L50.6217 1.33423C50.5849 1.21919 50.5447 1.10076 50.5045 0.995871L50.4175 0.752243L50.3171 0.495087L50.1765 0.156729L50.1062 0.00109863C50.0392 -0.144396 49.9723 -0.289902 49.8986 -0.435396C49.8884 -0.453892 49.8794 -0.47311 49.8719 -0.49291C49.3149 -1.58949 48.5984 -2.59545 47.7462 -3.47723L47.7161 -3.50767C47.5989 -3.62948 47.4784 -3.74452 47.3579 -3.84603L47.2441 -3.9543C47.147 -4.04227 47.0499 -4.13025 46.9495 -4.21484L46.752 -4.38402L46.5076 -4.58028C46.4239 -4.64457 46.3402 -4.71224 46.2532 -4.77314L46.1494 -4.85435L20.213 -23.6941C18.9184 -24.6345 17.4533 -25.3079 15.9012 -25.6758C14.3491 -26.0438 12.7405 -26.0991 11.1673 -25.8386C9.59409 -25.5782 8.08704 -25.007 6.73223 -24.1578C5.37741 -23.3085 4.20138 -22.1978 3.27129 -20.8891C1.40501 -18.2478 0.650232 -14.9667 1.17224 -11.7641C1.69424 -8.56156 3.45048 -5.69858 6.05641 -3.80206Z" fill="#FF7DAF" stroke="#1E1E1E" stroke-width="1.5" stroke-miterlimit="10"/>
<path d="M108.097 11.1979L95.8807 20.0731L108.097 28.9516C109.391 29.8919 110.49 31.0808 111.33 32.4504C112.169 33.8199 112.734 35.3432 112.991 36.9334C113.249 38.5236 113.194 40.1494 112.829 41.7181C112.465 43.2868 111.799 44.7675 110.868 46.0758C109.939 47.3845 108.763 48.4952 107.408 49.3445C106.053 50.1937 104.547 50.7649 102.974 51.0254C101.401 51.2859 99.7924 51.2305 98.2406 50.8626C96.6887 50.4946 95.2238 49.8212 93.9294 48.8808L68.0004 30.0411L67.8933 29.9599L67.6389 29.767L67.3946 29.5674L67.1971 29.4016C67.1001 29.317 66.9996 29.229 66.9059 29.1411L66.7888 29.0328L66.4307 28.6944L66.4005 28.664C65.5503 27.7805 64.8371 26.772 64.2852 25.6729L64.2551 25.6154C64.1848 25.4699 64.1145 25.3244 64.0476 25.1789L63.9773 25.0199C63.9305 24.9082 63.8836 24.7965 63.8401 24.6815L63.7363 24.4243C63.7062 24.3431 63.6794 24.2619 63.6527 24.1807C63.6259 24.0995 63.569 23.9473 63.5322 23.8424C63.5154 23.7882 63.4987 23.7341 63.4853 23.68C63.4418 23.5378 63.3983 23.3957 63.3615 23.2536C63.3615 23.2198 63.3447 23.186 63.338 23.1521C63.2945 22.9897 63.2577 22.8138 63.2242 22.6683C63.2242 22.6446 63.2242 22.6209 63.2075 22.5972C63.174 22.428 63.1406 22.2589 63.1138 22.0897V22.0119C63.087 21.8449 63.0636 21.6791 63.0435 21.5145V21.3994C63.0435 21.2472 63.0134 21.0949 63 20.9427V20.7532C63 20.6246 63 20.4994 63 20.3708C63 20.2423 63 20.1813 63 20.0866C63 19.9919 63 19.8971 63 19.8024C63 19.7077 63 19.552 63 19.4234V19.2339C63 19.0817 63.0268 18.9294 63.0435 18.7772V18.6621C63.0636 18.493 63.087 18.3238 63.1138 18.1613V18.0835C63.1406 17.9144 63.174 17.7452 63.2075 17.576C63.2075 17.5523 63.2075 17.5286 63.2242 17.5049C63.2577 17.3459 63.2945 17.1666 63.338 17.0245C63.338 16.9906 63.338 16.9568 63.3615 16.923C63.3983 16.7809 63.4418 16.6387 63.4853 16.4966C63.4853 16.4425 63.5154 16.3884 63.5322 16.3342C63.569 16.2192 63.6091 16.1008 63.6527 15.9959C63.6962 15.891 63.7062 15.8334 63.7363 15.7522C63.7665 15.671 63.8033 15.5797 63.8401 15.4951C63.8769 15.4105 63.9305 15.2684 63.9773 15.1567L64.0476 15.0011C64.1145 14.8556 64.1848 14.7101 64.2551 14.5646L64.2852 14.5071C64.8398 13.4099 65.5552 12.4038 66.4072 11.5228L66.4373 11.4923C66.5545 11.3705 66.675 11.2555 66.7955 11.154L66.9126 11.0457C67.0063 10.9577 67.1067 10.8697 67.2038 10.7852L67.4013 10.616L67.6456 10.4197L67.9 10.2269L68.0071 10.1457L93.9361 -8.69409C95.2305 -9.63447 96.6954 -10.3079 98.2473 -10.6758C99.7991 -11.0438 101.407 -11.0991 102.98 -10.8386C104.553 -10.5782 106.06 -10.007 107.415 -9.15775C108.769 -8.3085 109.945 -7.19781 110.875 -5.8891C112.742 -3.24866 113.498 0.0319176 112.977 3.23442C112.456 6.43691 110.702 9.30039 108.097 11.1979Z" fill="#FF7DAF" stroke="#1E1E1E" stroke-width="1.5" stroke-miterlimit="10"/>
</svg>
