<svg width="168" height="39" viewBox="0 0 168 39" fill="none" xmlns="http://www.w3.org/2000/svg">
<path d="M24.5 38C37.4786 38 48 27.4787 48 14.5C48 1.52133 37.4786 -9 24.5 -9C11.5213 -9 1 1.52133 1 14.5C1 27.4787 11.5213 38 24.5 38Z" fill="#5CDB6D" stroke="#1E1E1E" stroke-width="1.5" stroke-linejoin="round"/>
<path d="M84.4859 38C97.4645 38 107.986 27.4787 107.986 14.5C107.986 1.52133 97.4645 -9 84.4859 -9C71.5072 -9 60.9858 1.52133 60.9858 14.5C60.9858 27.4787 71.5072 38 84.4859 38Z" fill="#5CDB6D" stroke="#1E1E1E" stroke-width="1.5" stroke-linejoin="round"/>
<path d="M144.467 38C157.446 38 167.967 27.4787 167.967 14.5C167.967 1.52133 157.446 -9 144.467 -9C131.489 -9 120.967 1.52133 120.967 14.5C120.967 27.4787 131.489 38 144.467 38Z" fill="#5CDB6D" stroke="#1E1E1E" stroke-width="1.5" stroke-linejoin="round"/>
</svg>
