<svg width="145" height="24" viewBox="0 0 145 24" fill="none" xmlns="http://www.w3.org/2000/svg">
<path d="M55.2418 3.03059C53.7362 2.20591 51.9507 1.78979 49.8777 1.78979H43.2651V21.3474H49.8777C51.9507 21.3474 53.7438 20.9388 55.2418 20.1217C56.7474 19.3046 57.8974 18.1546 58.7145 16.6793C59.5241 15.204 59.9326 13.5017 59.9326 11.5724C59.9326 9.6431 59.5241 7.94079 58.7145 6.48059C57.905 5.01283 56.7474 3.87039 55.2418 3.03815V3.03059ZM55.4915 14.8711C55.0073 15.8168 54.2885 16.5507 53.3201 17.0727C52.3517 17.5948 51.1563 17.852 49.7112 17.852H46.9497V5.2852H49.7112C51.1487 5.2852 52.3517 5.54243 53.3201 6.06447C54.2885 6.58652 55.0073 7.31283 55.4915 8.25099C55.9757 9.18915 56.2178 10.2938 56.2178 11.5724C56.2178 12.851 55.9757 13.9329 55.4915 14.8786V14.8711Z" fill="#1E1E1E"/>
<path d="M72.6286 7.93327C71.6073 7.29774 70.3513 6.97998 68.8609 6.97998C67.3704 6.97998 66.2507 7.32044 65.1763 8.00136C64.102 8.68229 63.2546 9.59018 62.6342 10.7175C62.0138 11.8448 61.7036 13.078 61.7036 14.402C61.7036 15.7261 62.0214 17.0879 62.6493 18.2001C63.2773 19.3122 64.1398 20.1823 65.2444 20.8254C66.349 21.4609 67.5974 21.7787 68.9971 21.7787C70.3967 21.7787 71.8494 21.4458 72.901 20.78C73.9602 20.1142 74.8152 19.2063 75.4658 18.0639L72.5681 16.6415C72.2428 17.209 71.7813 17.678 71.1987 18.0488C70.6161 18.4195 69.8974 18.6086 69.0424 18.6086C68.1875 18.6086 67.6503 18.4422 67.0602 18.1017C66.4701 17.7613 66.001 17.277 65.653 16.6264C65.4336 16.2178 65.2898 15.7412 65.2141 15.2191H75.655C75.6701 15.1284 75.6928 14.977 75.7079 14.7652C75.723 14.5534 75.7382 14.3037 75.7382 14.0162C75.7382 12.7224 75.4734 11.5422 74.9438 10.4754C74.4142 9.4086 73.6425 8.56123 72.6211 7.91814L72.6286 7.93327ZM65.3579 12.6846C65.4336 12.4274 65.5168 12.1853 65.6303 11.9583C65.9556 11.3152 66.4095 10.8083 66.9845 10.4451C67.5595 10.082 68.1875 9.90038 68.8836 9.90038C69.5796 9.90038 69.8822 9.98361 70.2908 10.1576C70.6994 10.3316 71.0474 10.551 71.3425 10.8234C71.63 11.0958 71.8645 11.3984 72.0234 11.7237C72.1823 12.0491 72.2806 12.3668 72.2957 12.677H65.3579V12.6846Z" fill="#1E1E1E"/>
<path d="M83.6517 16.4827H83.4322L79.9066 7.41882H75.8438L81.7375 21.3475H85.2934L91.2477 7.41882H87.2303L83.6517 16.4827Z" fill="#1E1E1E"/>
<path d="M93.0103 21.3474H96.6948V13.5319H104.533V10.0365H96.6948V5.2852H105.411V1.78979H93.0103V21.3474Z" fill="#1E1E1E"/>
<path d="M117.41 7.93327C116.389 7.29774 115.133 6.97998 113.642 6.97998C112.152 6.97998 111.032 7.32044 109.958 8.00136C108.883 8.68229 108.036 9.59018 107.415 10.7175C106.795 11.8448 106.485 13.078 106.485 14.402C106.485 15.7261 106.803 17.0879 107.431 18.2001C108.059 19.3122 108.921 20.1823 110.026 20.8254C111.13 21.4609 112.379 21.7787 113.778 21.7787C115.178 21.7787 116.631 21.4458 117.682 20.78C118.741 20.1142 119.596 19.2063 120.247 18.0639L117.349 16.6415C117.024 17.209 116.563 17.678 115.98 18.0488C115.397 18.4195 114.679 18.6086 113.824 18.6086C112.969 18.6086 112.432 18.4422 111.841 18.1017C111.251 17.7613 110.782 17.277 110.434 16.6264C110.215 16.2178 110.071 15.7412 109.995 15.2191H120.436C120.451 15.1284 120.474 14.977 120.489 14.7652C120.504 14.5534 120.519 14.3037 120.519 14.0162C120.519 12.7224 120.255 11.5422 119.725 10.4754C119.195 9.4086 118.424 8.56123 117.402 7.91814L117.41 7.93327ZM110.147 12.6846C110.222 12.4274 110.306 12.1853 110.419 11.9583C110.744 11.3152 111.198 10.8083 111.773 10.4451C112.348 10.082 112.976 9.90038 113.672 9.90038C114.368 9.90038 114.671 9.98361 115.08 10.1576C115.488 10.3316 115.836 10.551 116.131 10.8234C116.419 11.0958 116.653 11.3984 116.812 11.7237C116.979 12.0491 117.069 12.3668 117.085 12.677H110.147V12.6846Z" fill="#1E1E1E"/>
<path d="M129.75 13.0402L127.699 12.5484C127.192 12.4198 126.754 12.2306 126.391 11.9734C126.027 11.7162 125.846 11.4211 125.846 11.0731C125.846 10.7251 126.027 10.4602 126.391 10.2257C126.754 9.99117 127.245 9.87012 127.866 9.87012C128.486 9.87012 128.887 9.97604 129.356 10.1954C129.818 10.4149 130.196 10.7931 130.491 11.3454L133.548 10.0063C133.222 9.31781 132.784 8.74281 132.239 8.29643C131.694 7.85005 131.043 7.51715 130.302 7.29774C129.553 7.07833 128.721 6.97241 127.79 6.97241C126.86 6.97241 125.876 7.14643 125.044 7.49445C124.212 7.84248 123.561 8.32669 123.077 8.93952C122.592 9.55992 122.35 10.2862 122.35 11.126C122.35 11.9658 122.54 12.5333 122.91 13.1083C123.281 13.6833 123.773 14.1524 124.37 14.5307C124.968 14.9014 125.611 15.1662 126.285 15.3099L127.926 15.6655C128.312 15.7412 128.683 15.832 129.046 15.953C129.409 16.0741 129.712 16.233 129.962 16.4448C130.204 16.6566 130.332 16.9441 130.332 17.3073C130.332 17.6705 130.098 18.1698 129.621 18.3589C129.144 18.5481 128.622 18.6464 128.04 18.6464C127.457 18.6464 126.708 18.48 126.179 18.1395C125.649 17.7991 125.233 17.3073 124.923 16.6491L121.73 18.0412C121.987 18.7145 122.373 19.3349 122.903 19.8948C123.432 20.4622 124.121 20.9162 124.968 21.2642C125.816 21.6122 126.837 21.7863 128.04 21.7863C129.243 21.7863 130.128 21.5971 131.021 21.2264C131.914 20.8557 132.625 20.3261 133.154 19.6451C133.684 18.9642 133.949 18.1622 133.949 17.2543C133.949 16.3464 133.601 15.3629 132.897 14.629C132.193 13.9027 131.157 13.3731 129.772 13.0478L129.75 13.0402Z" fill="#1E1E1E"/>
<path d="M143.565 18.0866C143.308 18.1698 143.036 18.2077 142.748 18.2077C142.128 18.2077 141.681 18.0488 141.409 17.731C141.137 17.4133 141 16.9139 141 16.2406V10.4754H144.413V7.41884H141V3.48462H137.422V7.41884H134.993V10.4754H137.422V16.8912C137.422 18.3514 137.83 19.4939 138.647 20.3185C139.465 21.1508 140.599 21.5593 142.037 21.5593C143.474 21.5593 142.899 21.5215 143.308 21.4383C143.717 21.3551 144.125 21.2416 144.526 21.0978V17.6024C144.14 17.837 143.822 17.9958 143.573 18.0791L143.565 18.0866Z" fill="#1E1E1E"/>
<path d="M11.6092 2.70112L3.56044 8.48472C1.87398 9.69656 1.48923 12.0461 2.70107 13.7326L2.70549 13.7387C3.91733 15.4252 6.26686 15.8099 7.95332 14.5981L16.002 8.81447C17.6885 7.60263 18.0733 5.25309 16.8614 3.56663L16.857 3.56049C15.6452 1.87403 13.2956 1.48928 11.6092 2.70112Z" fill="#EA4335"/>
<path fill-rule="evenodd" clip-rule="evenodd" d="M3.77235 8.77962C2.24877 9.87443 1.90118 11.997 2.99598 13.5206L3.0004 13.5268C4.0952 15.0504 6.21782 15.3979 7.7414 14.3031L15.7901 8.51954C17.3137 7.42474 17.6613 5.30212 16.5665 3.77854L16.5621 3.7724C15.4673 2.24882 13.3447 1.90122 11.8211 2.99603L3.77235 8.77962ZM2.40615 13.9445C1.07727 12.0951 1.49918 9.51868 3.34852 8.18979L11.3972 2.4062C13.2466 1.07732 15.823 1.49923 17.1519 3.34856L17.1563 3.3547C18.4852 5.20404 18.0633 7.78049 16.214 9.10937L8.16524 14.893C6.3159 16.2219 3.73945 15.7999 2.41057 13.9506L2.40615 13.9445Z" fill="#1E1E1E"/>
<path d="M2.70549 9.34492L2.70107 9.35106C1.48923 11.0375 1.87398 13.3871 3.56044 14.5989L11.6092 20.3825C13.2956 21.5943 15.6452 21.2096 16.857 19.5231L16.8614 19.517C18.0733 17.8305 17.6885 15.481 16.002 14.2691L7.95332 8.48555C6.26686 7.27371 3.91733 7.65846 2.70549 9.34492Z" fill="#4285F4"/>
<path fill-rule="evenodd" clip-rule="evenodd" d="M2.99647 9.56287C1.90167 11.0864 2.24926 13.2091 3.77284 14.3039L11.8216 20.0875C13.3451 21.1823 15.4678 20.8347 16.5626 19.3111L16.567 19.305C17.6618 17.7814 17.3142 15.6588 15.7906 14.564L7.74189 8.78036C6.21831 7.68555 4.09569 8.03315 3.00089 9.55673L2.99647 9.56287ZM3.349 14.8937C1.49967 13.5648 1.07776 10.9884 2.40664 9.13903L2.41106 9.13289C3.73994 7.28355 6.31639 6.86164 8.16572 8.19053L16.2145 13.9741C18.0638 15.303 18.4857 17.8795 17.1568 19.7288L17.1524 19.7349C15.8235 21.5843 13.2471 22.0062 11.3977 20.6773L3.349 14.8937Z" fill="#1E1E1E"/>
<path d="M31.0398 8.48054L22.9911 14.2641C21.3046 15.476 20.9199 17.8255 22.1317 19.512L22.1361 19.5181C23.348 21.2046 25.6975 21.5893 27.384 20.3775L35.4327 14.5939C37.1192 13.382 37.5039 11.0325 36.2921 9.34605L36.2877 9.33991C35.0758 7.65345 32.7263 7.2687 31.0398 8.48054Z" fill="#F9AB00"/>
<path fill-rule="evenodd" clip-rule="evenodd" d="M23.2035 14.559C21.6799 15.6538 21.3323 17.7765 22.4271 19.3L22.4316 19.3062C23.5264 20.8298 25.649 21.1774 27.1726 20.0826L35.2213 14.299C36.7449 13.2042 37.0925 11.0815 35.9976 9.55796L35.9932 9.55181C34.8984 8.02823 32.7758 7.68064 31.2522 8.77545L23.2035 14.559ZM21.8373 19.7239C20.5084 17.8745 20.9303 15.2981 22.7797 13.9692L30.8284 8.18562C32.6777 6.85673 35.2542 7.27864 36.5831 9.12798L36.5875 9.13412C37.9164 10.9835 37.4945 13.5599 35.6451 14.8888L27.5964 20.6724C25.7471 22.0013 23.1706 21.5794 21.8417 19.73L21.8373 19.7239Z" fill="#1E1E1E"/>
<path d="M22.1357 3.56269L22.1312 3.56883C20.9194 5.25529 21.3042 7.60483 22.9906 8.81667L31.0393 14.6003C32.7258 15.8121 35.0753 15.4274 36.2872 13.7409L36.2916 13.7348C37.5034 12.0483 37.1187 9.69876 35.4322 8.48692L27.3835 2.70333C25.697 1.49148 23.3475 1.87623 22.1357 3.56269Z" fill="#34A853"/>
<path fill-rule="evenodd" clip-rule="evenodd" d="M22.4262 3.78076C21.3314 5.30434 21.6789 7.42696 23.2025 8.52177L31.2513 14.3054C32.7748 15.4002 34.8975 15.0526 35.9923 13.529L35.9967 13.5229C37.0915 11.9993 36.7439 9.87665 35.2203 8.78185L27.1716 2.99825C25.648 1.90345 23.5254 2.25104 22.4306 3.77462L22.4262 3.78076ZM22.7787 9.1116C20.9294 7.78272 20.5074 5.20626 21.8363 3.35693L21.8407 3.35078C23.1696 1.50145 25.7461 1.07954 27.5954 2.40842L35.6441 8.19202C37.4935 9.5209 37.9154 12.0974 36.5865 13.9467L36.5821 13.9528C35.2532 15.8022 32.6768 16.2241 30.8274 14.8952L22.7787 9.1116Z" fill="#1E1E1E"/>
</svg>
