<svg width="380" height="253" viewBox="0 0 380 253" fill="none" xmlns="http://www.w3.org/2000/svg">
<path d="M220.411 212.465C226.61 206.602 234.172 202.596 242.32 200.858C250.469 199.12 258.911 199.712 266.78 202.574C267.081 202.692 267.406 202.724 267.723 202.666C268.039 202.609 268.336 202.464 268.583 202.247C268.829 202.03 269.018 201.747 269.129 201.428C269.241 201.109 269.271 200.764 269.217 200.429C267.9 191.934 268.682 183.227 271.486 175.156C274.289 167.084 279.019 159.924 285.215 154.373C291.41 148.822 298.859 145.07 306.836 143.482C314.814 141.894 323.046 142.525 330.732 145.313C331.035 145.425 331.361 145.451 331.676 145.387C331.992 145.324 332.286 145.174 332.529 144.952C332.772 144.73 332.956 144.445 333.062 144.124C333.168 143.802 333.193 143.457 333.134 143.123C331.779 134.424 332.631 125.503 335.603 117.276C338.575 109.049 343.56 101.813 350.047 96.3087C369.11 80.0556 398.533 82.7823 414.492 102.219C431.566 123.024 429.171 154.629 409.268 172.461C403.079 178.028 395.628 181.791 387.645 183.382C379.663 184.972 371.425 184.334 363.738 181.531C363.437 181.42 363.115 181.394 362.802 181.456C362.49 181.517 362.198 181.664 361.955 181.881C361.713 182.099 361.527 182.38 361.418 182.696C361.309 183.012 361.28 183.354 361.332 183.686C362.649 192.181 361.867 200.888 359.064 208.959C356.26 217.031 351.53 224.191 345.335 229.742C339.139 235.293 331.69 239.045 323.713 240.633C315.736 242.221 307.503 241.59 299.818 238.802C299.517 238.691 299.194 238.666 298.882 238.727C298.569 238.789 298.277 238.935 298.035 239.153C297.792 239.37 297.607 239.651 297.498 239.967C297.389 240.284 297.359 240.625 297.412 240.957C298.743 249.455 297.968 258.17 295.161 266.247C292.354 274.324 287.613 281.484 281.403 287.025C261.497 304.861 231.694 302.131 215.17 280.807C199.748 260.87 202.118 229.684 220.411 212.465Z" fill="#F8D8D8" stroke="#1E1E1E" stroke-width="2" stroke-miterlimit="10"/>
<path d="M150 211.581V192.266C150 191.921 150.13 191.591 150.361 191.347C150.592 191.104 150.906 190.967 151.233 190.967H161.002V181.299C161.002 180.955 161.132 180.624 161.363 180.381C161.594 180.137 161.908 180 162.235 180H180.564C180.891 180 181.204 180.137 181.435 180.381C181.667 180.624 181.797 180.955 181.797 181.299V190.967H192.231V181.299C192.231 180.955 192.361 180.624 192.592 180.381C192.823 180.137 193.137 180 193.464 180H211.787C212.114 180 212.427 180.137 212.659 180.381C212.89 180.624 213.02 180.955 213.02 181.299V190.967H222.776C223.103 190.967 223.417 191.104 223.648 191.347C223.879 191.591 224.009 191.921 224.009 192.266V211.581C224.009 211.926 223.879 212.256 223.648 212.5C223.417 212.743 223.103 212.88 222.776 212.88H213.02V223.87H222.776C223.103 223.87 223.417 224.007 223.648 224.25C223.879 224.494 224.009 224.824 224.009 225.169V244.484C224.009 244.829 223.879 245.159 223.648 245.403C223.417 245.647 223.103 245.783 222.776 245.783H213.02V255.451C213.02 255.795 212.89 256.126 212.659 256.369C212.427 256.613 212.114 256.75 211.787 256.75H193.464C193.137 256.75 192.823 256.613 192.592 256.369C192.361 256.126 192.231 255.795 192.231 255.451V245.783H181.803V255.451C181.803 255.795 181.673 256.126 181.442 256.369C181.21 256.613 180.897 256.75 180.57 256.75H162.241C161.914 256.75 161.6 256.613 161.369 256.369C161.138 256.126 161.008 255.795 161.008 255.451V245.783H151.233C150.906 245.783 150.592 245.647 150.361 245.403C150.13 245.159 150 244.829 150 244.484V225.169C150 224.824 150.13 224.494 150.361 224.25C150.592 224.007 150.906 223.87 151.233 223.87H161.002V212.88H151.233C150.906 212.88 150.592 212.743 150.361 212.5C150.13 212.256 150 211.926 150 211.581ZM181.797 223.87H192.231V212.88H181.803L181.797 223.87Z" fill="#34A853" stroke="#1E1E1E" stroke-width="2" stroke-linejoin="round"/>
<path d="M213.817 149.384L203.551 131.614C209.049 127.87 212.936 121.976 214.378 115.194C215.82 108.413 214.702 101.284 211.265 95.3345C207.828 89.3851 202.345 85.0885 195.99 83.3654C189.634 81.6423 182.913 82.6297 177.266 86.116L167 68.346C177.063 61.9859 189.105 60.1169 200.513 63.1446C211.921 66.1723 221.775 73.8524 227.938 84.5188C234.1 95.1852 236.073 107.978 233.43 120.121C230.786 132.264 223.739 142.779 213.817 149.384Z" fill="#F9AB00" stroke="#1E1E1E" stroke-width="2" stroke-linejoin="round"/>
<path d="M307.124 105.335C291.039 105.335 278 91.605 278 74.6677C278 57.7304 291.039 44 307.124 44C323.208 44 336.248 57.7304 336.248 74.6677C336.248 91.605 323.208 105.335 307.124 105.335Z" stroke="#141414" stroke-width="2" stroke-linejoin="round"/>
<path d="M307.124 105.335C300.181 105.335 294.553 91.605 294.553 74.6677C294.553 57.7304 300.181 44 307.124 44C314.067 44 319.696 57.7304 319.696 74.6677C319.696 91.605 314.067 105.335 307.124 105.335Z" stroke="#141414" stroke-width="2" stroke-linejoin="round"/>
<path d="M334.203 63.3019H280.066" stroke="#141414" stroke-width="2" stroke-linejoin="round"/>
<path d="M334.203 85.979H280.066" stroke="#141414" stroke-width="2" stroke-linejoin="round"/>
<path d="M224.9 21.1434H244.25V1.91436C244.25 1.67186 244.345 1.43929 244.514 1.26781C244.682 1.09633 244.911 1 245.15 1H256.85C257.089 1 257.318 1.09633 257.486 1.26781C257.655 1.43929 257.75 1.67186 257.75 1.91436V21.1434H277.1C277.339 21.1434 277.568 21.2398 277.736 21.4112C277.905 21.5827 278 21.8153 278 22.0578V33.9445C278 34.187 277.905 34.4196 277.736 34.5911C277.568 34.7625 277.339 34.8589 277.1 34.8589H257.75V54.0856C257.75 54.3281 257.655 54.5607 257.486 54.7322C257.318 54.9037 257.089 55 256.85 55H245.15C244.911 55 244.682 54.9037 244.514 54.7322C244.345 54.5607 244.25 54.3281 244.25 54.0856V34.8612H224.9C224.661 34.8612 224.432 34.7648 224.264 34.5933C224.095 34.4219 224 34.1893 224 33.9468V22.0601C224 21.9398 224.023 21.8207 224.068 21.7095C224.113 21.5983 224.179 21.4972 224.263 21.412C224.346 21.3269 224.446 21.2593 224.555 21.2132C224.664 21.1671 224.782 21.1434 224.9 21.1434Z" fill="#EA4335" stroke="#1E1E1E" stroke-width="2" stroke-linejoin="round"/>
<path d="M0 219.937H40.0352" stroke="#1E1E1E" stroke-width="1.5" stroke-miterlimit="10"/>
<path d="M40.0352 219.937C31.7012 219.937 20.2559 227.048 20.1045 235.856" stroke="#1E1E1E" stroke-width="1.5" stroke-miterlimit="10"/>
<path d="M40.0353 219.937C31.6946 219.937 20.2404 212.817 20.1023 204" stroke="#1E1E1E" stroke-width="1.5" stroke-miterlimit="10"/>
<path d="M264.598 134.519L288.099 207.946H305.47L281.969 134.519H264.598Z" fill="#4285F4" stroke="#1E1E1E" stroke-width="1.5" stroke-linejoin="round"/>
<path d="M298.385 134.519L321.889 207.946H339.258L315.756 134.519H298.385Z" fill="#4285F4" stroke="#1E1E1E" stroke-width="1.5" stroke-linejoin="round"/>
</svg>
