<svg width="743" height="341" viewBox="0 0 743 341" fill="none" xmlns="http://www.w3.org/2000/svg">
<path d="M604.22 37.4136C592.769 43.9135 583.258 53.3487 576.662 64.7507C570.067 76.1526 566.624 89.1104 566.688 102.294C566.702 102.803 566.582 103.307 566.34 103.754C566.098 104.202 565.743 104.577 565.31 104.844C564.877 105.111 564.381 105.258 563.873 105.273C563.364 105.287 562.861 105.168 562.412 104.926C551.045 98.8839 538.312 95.8897 525.454 96.2357C512.597 96.5816 500.053 100.256 489.046 106.9C478.04 113.545 468.945 122.933 462.65 134.149C456.354 145.365 453.072 158.027 453.124 170.901C453.129 171.41 453 171.911 452.75 172.354C452.5 172.798 452.139 173.167 451.701 173.426C451.264 173.685 450.765 173.824 450.257 173.83C449.748 173.836 449.247 173.708 448.803 173.458C437.165 167.26 424.094 164.27 410.931 164.794C397.767 165.319 384.986 169.339 373.898 176.443C341.202 197.285 330.142 242.764 349.586 276.026C370.402 311.619 416.394 323.15 451.753 301.804C462.78 295.177 471.892 285.791 478.193 274.568C484.494 263.345 487.769 250.671 487.697 237.789C487.692 237.285 487.819 236.789 488.065 236.349C488.311 235.909 488.666 235.541 489.098 235.28C489.529 235.02 490.02 234.877 490.524 234.864C491.028 234.852 491.526 234.971 491.97 235.209C503.338 241.252 516.071 244.246 528.928 243.9C541.786 243.554 554.33 239.88 565.336 233.235C576.343 226.591 585.438 217.203 591.733 205.987C598.029 194.77 601.311 182.108 601.259 169.235C601.255 168.731 601.382 168.234 601.627 167.794C601.873 167.355 602.229 166.986 602.66 166.726C603.091 166.466 603.583 166.322 604.086 166.31C604.59 166.298 605.089 166.416 605.533 166.655C616.897 172.722 629.638 175.729 642.505 175.38C655.371 175.032 667.921 171.341 678.922 164.67C714.287 143.321 725.535 97.2698 703.704 62.2561C683.279 29.5598 637.893 18.1899 604.22 37.4136Z" fill="#F8D8D8" stroke="#1E1E1E" stroke-width="2" stroke-miterlimit="10"/>
<path d="M446 145.263V117.58C446 117.086 445.803 116.612 445.453 116.263C445.104 115.914 444.629 115.718 444.134 115.718H429.351V101.862C429.351 101.368 429.154 100.895 428.804 100.545C428.454 100.196 427.98 100 427.485 100H399.747C399.252 100 398.778 100.196 398.428 100.545C398.078 100.895 397.881 101.368 397.881 101.862V115.718H382.091V101.862C382.091 101.368 381.894 100.895 381.544 100.545C381.194 100.196 380.72 100 380.225 100H352.496C352.002 100 351.527 100.196 351.177 100.545C350.827 100.895 350.63 101.368 350.63 101.862V115.718H335.866C335.371 115.718 334.896 115.914 334.547 116.263C334.197 116.612 334 117.086 334 117.58V145.263C334 145.757 334.197 146.23 334.547 146.579C334.896 146.929 335.371 147.125 335.866 147.125H350.63V162.875H335.866C335.371 162.875 334.896 163.071 334.547 163.421C334.197 163.77 334 164.243 334 164.737V192.42C334 192.914 334.197 193.388 334.547 193.737C334.896 194.086 335.371 194.282 335.866 194.282H350.63V208.138C350.63 208.632 350.827 209.105 351.177 209.455C351.527 209.804 352.002 210 352.496 210H380.225C380.72 210 381.194 209.804 381.544 209.455C381.894 209.105 382.091 208.632 382.091 208.138V194.282H397.872V208.138C397.872 208.632 398.069 209.105 398.419 209.455C398.769 209.804 399.243 210 399.738 210H427.476C427.97 210 428.445 209.804 428.795 209.455C429.145 209.105 429.342 208.632 429.342 208.138V194.282H444.134C444.629 194.282 445.104 194.086 445.453 193.737C445.803 193.388 446 192.914 446 192.42V164.737C446 164.243 445.803 163.77 445.453 163.421C445.104 163.071 444.629 162.875 444.134 162.875H429.351V147.125H444.134C444.629 147.125 445.104 146.929 445.453 146.579C445.803 146.23 446 145.757 446 145.263ZM397.881 162.875H382.091V147.125H397.872L397.881 162.875Z" fill="#34A853" stroke="#1E1E1E" stroke-width="2" stroke-linejoin="round"/>
<path d="M533.517 82.8263H501.625V51.4901C501.625 51.0949 501.469 50.7159 501.191 50.4364C500.912 50.157 500.535 50 500.142 50H480.858C480.465 50 480.088 50.157 479.809 50.4364C479.531 50.7159 479.375 51.0949 479.375 51.4901V82.8263H447.483C447.09 82.8263 446.713 82.9833 446.434 83.2627C446.156 83.5422 446 83.9212 446 84.3164V103.687C446 104.083 446.156 104.462 446.434 104.741C446.713 105.02 447.09 105.177 447.483 105.177H479.375V136.51C479.375 136.905 479.531 137.284 479.809 137.564C480.088 137.843 480.465 138 480.858 138H500.142C500.535 138 500.912 137.843 501.191 137.564C501.469 137.284 501.625 136.905 501.625 136.51V105.181H533.517C533.91 105.181 534.287 105.024 534.566 104.745C534.844 104.465 535 104.086 535 103.691V84.3201C535 84.1241 534.962 83.93 534.888 83.7487C534.814 83.5675 534.705 83.4028 534.567 83.2641C534.429 83.1253 534.265 83.0152 534.085 82.9401C533.905 82.865 533.712 82.8263 533.517 82.8263Z" fill="#EA4335" stroke="#1E1E1E" stroke-width="2" stroke-linejoin="round"/>
<path d="M37 224.548C56.8822 224.548 73 208.531 73 188.774C73 169.017 56.8822 153 37 153C17.1177 153 1 169.017 1 188.774C1 208.531 17.1177 224.548 37 224.548Z" stroke="#141414" stroke-width="2" stroke-linejoin="round"/>
<path d="M36.9999 224.548C45.5821 224.548 52.5394 208.531 52.5394 188.774C52.5394 169.017 45.5821 153 36.9999 153C28.4176 153 21.4603 169.017 21.4603 188.774C21.4603 208.531 28.4176 224.548 36.9999 224.548Z" stroke="#141414" stroke-width="2" stroke-linejoin="round"/>
<path d="M3.52742 175.516H70.4466" stroke="#141414" stroke-width="2" stroke-linejoin="round"/>
<path d="M3.52742 201.969H70.4466" stroke="#141414" stroke-width="2" stroke-linejoin="round"/>
<path d="M89 175.477L109.768 200.727C118.309 194.009 129.163 190.927 140.002 192.141C150.842 193.355 160.806 198.769 167.759 207.223C174.712 215.677 178.101 226.498 177.2 237.368C176.3 248.238 171.181 258.293 162.94 265.377L183.708 290.628C198.611 278.078 207.931 260.116 209.645 240.636C211.359 221.157 205.329 201.732 192.863 186.575C180.397 171.419 162.501 161.753 143.057 159.676C123.613 157.598 104.19 163.276 89 175.477Z" fill="#F9AB00" stroke="#1E1E1E" stroke-width="2" stroke-linejoin="round"/>
<path d="M312.169 78L280.953 170.039H257.88L289.096 78H312.169Z" fill="#4285F4" stroke="#1E1E1E" stroke-width="1.5" stroke-linejoin="round"/>
<path d="M267.29 78L236.07 170.039H213L244.216 78H267.29Z" fill="#4285F4" stroke="#1E1E1E" stroke-width="1.5" stroke-linejoin="round"/>
<path d="M623 202.9H660" stroke="#1E1E1E" stroke-width="1.5" stroke-miterlimit="10"/>
<path d="M660 202.9C652.298 202.9 641.72 209.101 641.58 216.783" stroke="#1E1E1E" stroke-width="1.5" stroke-miterlimit="10"/>
<path d="M660 202.9C652.292 202.9 641.706 196.69 641.578 189" stroke="#1E1E1E" stroke-width="1.5" stroke-miterlimit="10"/>
</svg>
