<svg width="222" height="244" viewBox="0 0 222 244" fill="none" xmlns="http://www.w3.org/2000/svg">
<g clip-path="url(#clip0_272_26)">
<path d="M138.836 187.981C133.108 182.868 126.119 179.374 118.588 177.858C111.057 176.342 103.255 176.858 95.9833 179.355C95.7046 179.457 95.404 179.485 95.1116 179.435C94.8192 179.385 94.5452 179.258 94.3171 179.069C94.0889 178.879 93.9147 178.633 93.8118 178.355C93.7089 178.077 93.6809 177.776 93.7307 177.483C94.9475 170.075 94.2251 162.481 91.634 155.441C89.0429 148.402 84.6714 142.157 78.9458 137.316C73.2201 132.475 66.3356 129.202 58.9633 127.817C51.591 126.433 43.9824 126.983 36.8794 129.414C36.599 129.512 36.298 129.534 36.0065 129.479C35.715 129.424 35.4432 129.293 35.2184 129.1C34.9936 128.906 34.8237 128.657 34.7256 128.377C34.6276 128.097 34.6048 127.796 34.6596 127.504C35.912 119.917 35.1244 112.137 32.3775 104.962C29.6307 97.787 25.0236 91.4755 19.029 86.6753C1.41063 72.5002 -25.7816 74.8783 -40.5304 91.8301C-56.3103 109.975 -54.0966 137.539 -35.703 153.091C-29.9829 157.947 -23.0964 161.229 -15.7194 162.616C-8.34237 164.002 -0.728315 163.446 6.37551 161.001C6.65333 160.905 6.95132 160.882 7.24023 160.936C7.52913 160.99 7.79899 161.118 8.02327 161.307C8.24755 161.497 8.41854 161.742 8.51944 162.018C8.62034 162.294 8.64768 162.591 8.59876 162.881C7.38196 170.29 8.10431 177.884 10.6954 184.923C13.2865 191.963 17.658 198.207 23.3837 203.049C29.1093 207.89 35.9939 211.162 43.3662 212.547C50.7385 213.932 58.347 213.382 65.4501 210.95C65.7279 210.854 66.0259 210.831 66.3148 210.885C66.6037 210.939 66.8735 211.067 67.0978 211.256C67.3221 211.446 67.4931 211.691 67.594 211.967C67.6949 212.243 67.7222 212.54 67.6733 212.83C66.4427 220.242 67.1595 227.842 69.7534 234.886C72.3473 241.93 76.7292 248.175 82.4687 253.008C100.866 268.563 128.409 266.182 143.68 247.584C157.933 230.197 155.743 202.998 138.836 187.981Z" fill="#F8D8D8" stroke="#1E1E1E" stroke-width="2" stroke-miterlimit="10"/>
<path d="M203 207.569V190.708C203 190.407 202.881 190.118 202.668 189.906C202.456 189.693 202.168 189.573 201.867 189.573H192.892V181.134C192.892 180.833 192.772 180.545 192.56 180.332C192.347 180.12 192.059 180 191.759 180H174.918C174.618 180 174.329 180.12 174.117 180.332C173.904 180.545 173.785 180.833 173.785 181.134V189.573H164.198V181.134C164.198 180.833 164.079 180.545 163.866 180.332C163.654 180.12 163.365 180 163.065 180H146.23C145.929 180 145.641 180.12 145.429 180.332C145.216 180.545 145.097 180.833 145.097 181.134V189.573H136.133C135.832 189.573 135.544 189.693 135.332 189.906C135.119 190.118 135 190.407 135 190.708V207.569C135 207.87 135.119 208.158 135.332 208.371C135.544 208.584 135.832 208.703 136.133 208.703H145.097V218.297H136.133C135.832 218.297 135.544 218.416 135.332 218.629C135.119 218.842 135 219.13 135 219.431V236.292C135 236.593 135.119 236.882 135.332 237.094C135.544 237.307 135.832 237.427 136.133 237.427H145.097V245.866C145.097 246.167 145.216 246.455 145.429 246.668C145.641 246.88 145.929 247 146.23 247H163.065C163.365 247 163.654 246.88 163.866 246.668C164.079 246.455 164.198 246.167 164.198 245.866V237.427H173.779V245.866C173.779 246.167 173.899 246.455 174.111 246.668C174.324 246.88 174.612 247 174.912 247H191.753C192.054 247 192.342 246.88 192.554 246.668C192.767 246.455 192.886 246.167 192.886 245.866V237.427H201.867C202.168 237.427 202.456 237.307 202.668 237.094C202.881 236.882 203 236.593 203 236.292V219.431C203 219.13 202.881 218.842 202.668 218.629C202.456 218.416 202.168 218.297 201.867 218.297H192.892V208.703H201.867C202.168 208.703 202.456 208.584 202.668 208.371C202.881 208.158 203 207.87 203 207.569ZM173.785 218.297H164.198V208.703H173.779L173.785 218.297Z" fill="#34A853" stroke="#1E1E1E" stroke-width="2" stroke-linejoin="round"/>
<path d="M145.684 152.488L155.172 136.99C150.09 133.725 146.499 128.585 145.166 122.67C143.833 116.756 144.866 110.539 148.042 105.35C151.219 100.161 156.287 96.4137 162.16 94.9109C168.033 93.4081 174.245 94.2693 179.464 97.3099L188.952 81.8118C179.651 76.2648 168.522 74.6348 157.979 77.2754C147.436 79.916 138.329 86.6142 132.634 95.9168C126.939 105.22 125.115 116.376 127.558 126.967C130.001 137.558 136.514 146.728 145.684 152.488Z" fill="#F9AB00" stroke="#1E1E1E" stroke-width="2" stroke-linejoin="round"/>
<path d="M75 94.5478C94.8822 94.5478 111 78.5312 111 58.7739C111 39.0165 94.8822 23 75 23C55.1177 23 39 39.0165 39 58.7739C39 78.5312 55.1177 94.5478 75 94.5478Z" stroke="#141414" stroke-width="2" stroke-linejoin="round"/>
<path d="M75 94.5478C83.5823 94.5478 90.5396 78.5312 90.5396 58.7739C90.5396 39.0165 83.5823 23 75 23C66.4178 23 59.4604 39.0165 59.4604 58.7739C59.4604 78.5312 66.4178 94.5478 75 94.5478Z" stroke="#141414" stroke-width="2" stroke-linejoin="round"/>
<path d="M41.5273 45.5156H108.447" stroke="#141414" stroke-width="2" stroke-linejoin="round"/>
<path d="M41.5273 71.9685H108.447" stroke="#141414" stroke-width="2" stroke-linejoin="round"/>
<path d="M173 12.0086H151.5V-9.00097C151.5 -9.26593 151.395 -9.52004 151.207 -9.70739C151.02 -9.89475 150.765 -10 150.5 -10H137.5C137.235 -10 136.98 -9.89475 136.793 -9.70739C136.605 -9.52004 136.5 -9.26593 136.5 -9.00097V12.0086H115C114.735 12.0086 114.48 12.1138 114.293 12.3012C114.105 12.4885 114 12.7426 114 13.0076V25.9949C114 26.2599 114.105 26.514 114.293 26.7013C114.48 26.8887 114.735 26.9939 115 26.9939H136.5V48.001C136.5 48.2659 136.605 48.52 136.793 48.7074C136.98 48.8947 137.235 49 137.5 49H150.5C150.765 49 151.02 48.8947 151.207 48.7074C151.395 48.52 151.5 48.2659 151.5 48.001V26.9964H173C173.265 26.9964 173.52 26.8912 173.707 26.7038C173.895 26.5165 174 26.2624 174 25.9974V13.0101C174 12.8787 173.975 12.7485 173.925 12.627C173.874 12.5055 173.801 12.3951 173.708 12.302C173.615 12.209 173.505 12.1352 173.383 12.0848C173.262 12.0345 173.132 12.0086 173 12.0086Z" fill="#EA4335" stroke="#1E1E1E" stroke-width="2" stroke-linejoin="round"/>
<path d="M178 146.9H215" stroke="#1E1E1E" stroke-width="1.5" stroke-miterlimit="10"/>
<path d="M215 146.9C207.298 146.9 196.72 153.101 196.58 160.783" stroke="#1E1E1E" stroke-width="1.5" stroke-miterlimit="10"/>
<path d="M215 146.9C207.292 146.9 196.706 140.69 196.578 133" stroke="#1E1E1E" stroke-width="1.5" stroke-miterlimit="10"/>
<path d="M97.9998 120L76.2802 184.039H60.2261L81.9457 120H97.9998Z" fill="#4285F4" stroke="#1E1E1E" stroke-width="1.5" stroke-linejoin="round"/>
<path d="M66.7738 120L45.0518 184.039H29L50.7197 120H66.7738Z" fill="#4285F4" stroke="#1E1E1E" stroke-width="1.5" stroke-linejoin="round"/>
</g>
<defs>
<clipPath id="clip0_272_26">
<rect width="222" height="244" fill="white"/>
</clipPath>
</defs>
</svg>
