<svg width="142" height="142" viewBox="0 0 142 142" fill="none" xmlns="http://www.w3.org/2000/svg">
<path d="M60.8247 118.616H60.8249L60.8247 119.616L115.304 119.624C119.046 119.624 121.614 122.231 121.628 126.057M60.8247 118.616L121.628 126.057M60.8247 118.616C56.0766 118.616 51.3276 118.612 46.5781 118.609C33.2769 118.598 19.9718 118.588 6.67027 118.659H6.67003C4.99376 118.668 3.58636 118.08 2.6009 117.097C1.61671 116.114 0.996383 114.68 1.00002 112.891L60.8247 118.616ZM121.628 126.057L122.628 126.053M121.628 126.057L122.628 126.053M21.6787 15.5649C21.6569 19.6875 18.5815 22.8063 14.4869 22.8236L14.4827 22.8237L14.4675 22.8237H14.4523H14.4371H14.4219H14.4067H14.3914H14.3762H14.361H14.3458H14.3306H14.3154H14.3002H14.285H14.2698H14.2546H14.2394H14.2242H14.209H14.1938H14.1786H14.1633H14.1481H14.1329H14.1177H14.1025H14.0873H14.0721H14.0569H14.0417H14.0265H14.0113H13.9961H13.9809H13.9657H13.9505H13.9353H13.9201H13.9049H13.8896H13.8744H13.8592H13.844H13.8288H13.8136H13.7984H13.7832H13.768H13.7528H13.7376H13.7224H13.7072H13.692H13.6768H13.6616H13.6464H13.6312H13.616H13.6008H13.5855H13.5703H13.5551H13.5399H13.5247H13.5095H13.4943H13.4791H13.4639H13.4487H13.4335H13.4183H13.4031H13.3879H13.3727H13.3575H13.3423H13.3271H13.3119H13.2967H13.2815H13.2663H13.2511H13.2359H13.2207H13.2054H13.1902H13.175H13.1598H13.1446H13.1294H13.1142H13.099H13.0838H13.0686H13.0534H13.0382H13.023H13.0078H12.9926H12.9774H12.9622H12.947H12.9318H12.9166H12.9014H12.8862H12.871H12.8558H12.8406H12.8254H12.8102H12.795H12.7798H12.7646H12.7494H12.7342H12.719H12.7038H12.6886H12.6734H12.6581H12.6429H12.6277H12.6125H12.5973H12.5821H12.5669H12.5517H12.5365H12.5213H12.5061H12.4909H12.4757H12.4605H12.4453H12.4301H12.4149H12.3997H12.3845H12.3693H12.3541H12.3389H12.3237H12.3085H12.2933H12.2781H12.2629H12.2477H12.2325H12.2173H12.2021H12.1869H12.1717H12.1565H12.1413H12.1261H12.1109H12.0957H12.0805H12.0653H12.0501H12.0349H12.0197H12.0045H11.9893H11.9741H11.9589H11.9437H11.9285H11.9133H11.8981H11.8829H11.8677H11.8525H11.8373H11.8221H11.8069H11.7917H11.7765H11.7613H11.7461H11.7309H11.7157H11.7005H11.6853H11.6701H11.6549H11.6397H11.6245H11.6093H11.5941H11.5789H11.5637H11.5485H11.5333H11.5181H11.5029H11.4877H11.4725H11.4573H11.4421H11.4269H11.4117H11.3965H11.3813H11.3661H11.3509H11.3357H11.3205H11.3053H11.2901H11.2749H11.2597H11.2445H11.2293H11.2141H11.1989H11.1837H11.1685H11.1533H11.1381H11.1229H11.1077H11.0925H11.0773H11.0621H11.0469H11.0317H11.0165H11.0013H10.9861H10.9709H10.9557H10.9405H10.9253H10.9101H10.8949H10.8797H10.8645H10.8493H10.8341H10.8189H10.8037H10.7885H10.7733H10.7581H10.743H10.7278H10.7126H10.6974H10.6822H10.667H10.6518H10.6366H10.6214H10.6062H10.591H10.5758H10.5606H10.5454H10.5302H10.515H10.4998H10.4846H10.4694H10.4542H10.439H10.4238H10.4086H10.3934H10.3782H10.363H10.3478H10.3326H10.3174H10.3022H10.287H10.2718H10.2566H10.2414H10.2262H10.211H10.1958H10.1806H10.1654H10.1502H10.135H10.1198H10.1046H10.0895H10.0743H10.0591H10.0439H10.0287H10.0135H9.99827H9.98307H9.96787H9.95268H9.93748H9.92228H9.90709H9.89189H9.87669H9.8615H9.8463H9.8311H9.81591H9.80071H9.78551H9.77032H9.75512H9.73992H9.72472H9.70953H9.69433H9.67913H9.66394H9.64874H9.63354H9.61835H9.60315H9.58796H9.57276H9.55756H9.54237H9.52717H9.51197H9.49678H9.48158H9.46638H9.45119H9.43599H9.42079H9.4056H9.3904H9.37521H9.36001H9.34481H9.32962H9.31442H9.29922H9.28403H9.26883H9.25364H9.23844H9.22324H9.20805H9.19285H9.17766H9.16246H9.14726H9.13207H9.11687H9.10168H9.08648H9.07128H9.05609H9.04089H9.02569H9.0105H8.9953H8.98011H8.96491H8.94972H8.93452H8.91932H8.90413H8.88893H8.87374H8.85854H8.84334H8.82815H8.81295H8.79776H8.78256H8.76737H8.75217H8.73697H8.72178H8.70658H8.69139H8.67619H8.661H8.6458H8.63061H8.61541H8.60021H8.58502H8.56982H8.55463H8.53943H8.52424H8.50904H8.49385H8.47865H8.46345H8.44826H8.43306H8.41787H8.40267H8.38748H8.37228H8.35709H8.34189H8.3267H8.3115H8.2963H8.28111H8.26591H8.25072H8.23552H8.22033H8.20513H8.18994H8.17474H8.15955H8.14435H8.12916H8.11396H8.09877H8.08357H8.06838H8.05318H8.03799H8.02279H8.0076H7.9924H7.9772H7.96201H7.94681H7.93162H7.91642H7.90123H7.88603H7.87084H7.85564H7.84045H7.82525H7.81006H7.79486H7.77967H7.76447H7.74928H7.73408H7.71889H7.70369H7.6885H7.6733H7.65811H7.64291H7.62772H7.61252H7.59733H7.58213H7.56694H7.55174H7.53655H7.52135H7.50616H7.49096H7.47577H7.46057H7.44538H7.43018H7.41499H7.39979H7.3846H7.3694H7.35421H7.33901H7.32382H7.30862H7.29343H7.27823H7.26304H7.24784H7.23265H7.21745H7.20226H7.18706H7.17187H7.15667H7.14148H7.12629H7.11109H7.0959H7.0807H7.06551H7.05031H7.03512H7.01992H7.00473H6.98953H6.97434H6.95914H6.94395H6.92875H6.91356H6.89836H6.88317H6.86797H6.85278H6.83758H6.82239H6.80719H6.792H6.7768H6.76161H6.74641H6.73122H6.71602H6.70184C4.77494 22.8256 3.39228 23.3818 2.49007 24.2941C1.58657 25.2076 1.03592 26.6086 1.03577 28.5566C1.07924 56.6708 1.06732 84.7822 1.00002 112.891L128.064 141.988C130.554 142.004 133.043 142.004 135.531 141.988M21.6787 15.5649C21.6787 15.565 21.6787 15.5651 21.6787 15.5652L20.6787 15.5597L21.6787 15.5649ZM21.6787 15.5649C21.6899 13.546 21.6862 11.523 21.6825 9.50466C21.6806 8.49806 21.6787 7.49262 21.6787 6.48942C21.6837 4.71303 22.2331 3.35957 23.1176 2.45482C23.9997 1.55252 25.3092 1 27.0241 1H27.1206H27.2172H27.3137H27.4102H27.5068H27.6033H27.6998H27.7964H27.8929H27.9894H28.086H28.1825H28.279H28.3756H28.4721H28.5686H28.6652H28.7617H28.8582H28.9548H29.0513H29.1478H29.2444H29.3409H29.4374H29.534H29.6305H29.727H29.8236H29.9201H30.0166H30.1132H30.2097H30.3062H30.4028H30.4993H30.5958H30.6924H30.7889H30.8855H30.982H31.0785H31.1751H31.2716H31.3681H31.4647H31.5612H31.6577H31.7543H31.8508H31.9473H32.0439H32.1404H32.2369H32.3335H32.43H32.5265H32.6231H32.7196H32.8161H32.9127H33.0092H33.1057H33.2023H33.2988H33.3953H33.4919H33.5884H33.6849H33.7815H33.878H33.9745H34.0711H34.1676H34.2641H34.3607H34.4572H34.5537H34.6503H34.7468H34.8433H34.9399H35.0364H35.1329H35.2295H35.326H35.4225H35.5191H35.6156H35.7121H35.8087H35.9052H36.0017H36.0983H36.1948H36.2913H36.3879H36.4844H36.5809H36.6775H36.774H36.8705H36.9671H37.0636H37.1601H37.2567H37.3532H37.4498H37.5463H37.6428H37.7394H37.8359H37.9324H38.029H38.1255H38.222H38.3186H38.4151H38.5116H38.6082H38.7047H38.8012H38.8978H38.9943H39.0908H39.1874H39.2839H39.3804H39.477H39.5735H39.67H39.7666H39.8631H39.9596H40.0562H40.1527H40.2492H40.3458H40.4423H40.5388H40.6354H40.7319H40.8284H40.925H41.0215H41.118H41.2146H41.3111H41.4076H41.5042H41.6007H41.6972H41.7938H41.8903H41.9868H42.0834H42.1799H42.2764H42.373H42.4695H42.566H42.6626H42.7591H42.8556H42.9522H43.0487H43.1452H43.2418H43.3383H43.4348H43.5314H43.6279H43.7244H43.821H43.9175H44.014H44.1106H44.2071H44.3036H44.4002H44.4967H44.5933H44.6898H44.7863H44.8829H44.9794H45.0759H45.1725H45.269H45.3655H45.4621H45.5586H45.6551H45.7517H45.8482H45.9447H46.0413H46.1378H46.2343H46.3309H46.4274H46.5239H46.6205H46.717H46.8135H46.9101H47.0066H47.1031H47.1997H47.2962H47.3927H47.4893H47.5858H47.6823H47.7789H47.8754H47.9719H48.0685H48.165H48.2615H48.3581H48.4546H48.5511H48.6477H48.7442H48.8407H48.9373H49.0338H49.1303H49.2269H49.3234H49.4199H49.5165H49.613H49.7095H49.8061H49.9026H49.9991H50.0957H50.1922H50.2887H50.3853H50.4818H50.5783H50.6749H50.7714H50.868H50.9645H51.061H51.1576H51.2541H51.3506H51.4472H51.5437H51.6402H51.7368H51.8333H51.9298H52.0264H52.1229H52.2194H52.316H52.4125H52.509H52.6056H52.7021H52.7986H52.8952H52.9917H53.0882H53.1848H53.2813H53.3778H53.4744H53.5709H53.6674H53.764H53.8605H53.957H54.0536H54.1501H54.2466H54.3432H54.4397H54.5362H54.6328H54.7293H54.8258H54.9224H55.0189H55.1154H55.212H55.3085H55.405H55.5016H55.5981H55.6946H55.7912H55.8877H55.9842H56.0808H56.1773H56.2738H56.3704H56.4669H56.5634H56.66H56.7565H56.853H56.9496H57.0461H57.1426H57.2392H57.3357H57.4322H57.5288H57.6253H57.7218H57.8184H57.9149H58.0114H58.108H58.2045H58.301H58.3976H58.4941H58.5907H58.6872H58.7837H58.8803H58.9768H59.0733H59.1699H59.2664H59.3629H59.4595H59.556H59.6525H59.7491H59.8456H59.9421H60.0387H60.1352H60.2317H60.3283H60.4248H60.5213H60.6179H60.7144H60.8109H60.9075H61.004H61.1005H61.1971H61.2936H61.3901H61.4867H61.5832H61.6797H61.7763H61.8728H61.9693H62.0659H62.1624H62.2589H62.3555H62.452H62.5485H62.6451H62.7416H62.8381H62.9347H63.0312H63.1277H63.2243H63.3208H63.4173H63.5139H63.6104H63.7069H63.8035H63.9H63.9965H64.0931H64.1896H64.2861H64.3827H64.4792H64.5757H64.6723H64.7688H64.8653H64.9619H65.0584H65.1549H65.2515H65.348H65.4445H65.5411H65.6376H65.7342H65.8307H65.9272H66.0238H66.1203H66.2168H66.3134H66.4099H66.5064H66.603H66.6995H66.796H66.8926H66.9891H67.0856H67.1822H67.2787H67.3752H67.4718H67.5683H67.6648H67.7614H67.8579H67.9544H68.051H68.1475H68.244H68.3406H68.4371H68.5336H68.6302H68.7267H68.8232H68.9198H69.0163H69.1128H69.2094H69.3059H69.4024H69.499H69.5955H69.692H69.7886H69.8851H69.9816H70.0782H70.1747H70.2712H70.3678H70.4643H70.5608H70.6574H70.7539H70.8504H70.947H71.0435H71.14H71.2366H71.3331H71.4296H71.5262H71.6227H71.7192H71.8158H71.9123H72.0089H72.1054H72.2019H72.2984H72.395H72.4915H72.5881H72.6846H72.7811H72.8777H72.9742H73.0707H73.1673H73.2638H73.3603H73.4569H73.5534H73.6499H73.7465H73.843H73.9395H74.0361H74.1326H74.2291H74.3257H74.4222H74.5187H74.6153H74.7118H74.8083H74.9049H75.0014H75.0979H75.1945H75.291H75.3875H75.4841H75.5806H75.6771H75.7737H75.8702H75.9667H76.0633H76.1598H76.2563H76.3529H76.4494C78.0928 1 79.3814 1.54987 80.2597 2.4455C81.1399 3.34311 81.688 4.67002 81.6917 6.36867V6.39359V6.42069V6.4478V6.47491V6.50202V6.52913V6.55623V6.58334V6.61045V6.63756V6.66467V6.69177V6.71888V6.74599V6.7731V6.8002V6.82731V6.85442V6.88153V6.90863V6.93574V6.96285V6.98996V7.01706V7.04417V7.07128V7.09838V7.12549V7.1526V7.17971V7.20681V7.23392V7.26103V7.28813V7.31524V7.34235V7.36945V7.39656V7.42367V7.45077V7.47788V7.50498V7.53209V7.5592V7.5863V7.61341V7.64052V7.66762V7.69473V7.72183V7.74894V7.77605V7.80315V7.83026V7.85736V7.88447V7.91158V7.93868V7.96579V7.99289V8.02V8.0471V8.07421V8.10132V8.12842V8.15553V8.18263V8.20974V8.23684V8.26395V8.29105V8.31816V8.34526V8.37237V8.39947V8.42658V8.45368V8.48079V8.50789V8.535V8.5621V8.58921V8.61631V8.64342V8.67052V8.69763V8.72473V8.75184V8.77894V8.80605V8.83315V8.86026V8.88736V8.91447V8.94157V8.96867V8.99578V9.02288V9.04999V9.07709V9.1042V9.1313V9.15841V9.18551V9.21261V9.23972V9.26682V9.29393V9.32103V9.34813V9.37524V9.40234V9.42945V9.45655V9.48365V9.51076V9.53786V9.56497V9.59207V9.61917V9.64628V9.67338V9.70049V9.72759V9.75469V9.7818V9.8089V9.836V9.86311V9.89021V9.91731V9.94442V9.97152V9.99862V10.0257V10.0528V10.0799V10.107V10.1341V10.1612V10.1883V10.2155V10.2426V10.2697V10.2968V10.3239V10.351V10.3781V10.4052V10.4323V10.4594V10.4865V10.5136V10.5407V10.5678V10.5949V10.622V10.6491V10.6762V10.7033V10.7304V10.7575V10.7846V10.8117V10.8388V10.8659V10.893V10.9201V10.9472V10.9743V11.0014V11.0285V11.0556V11.0827V11.1098V11.137V11.1641V11.1912V11.2183V11.2454V11.2725V11.2996V11.3267V11.3538V11.3809V11.408V11.4351V11.4622V11.4893V11.5164V11.5435V11.5706V11.5977V11.6248V11.6519V11.679V11.7061V11.7332V11.7603V11.7874V11.8145V11.8416V11.8687V11.8958V11.9229V11.95V11.9771V12.0042V12.0313V12.0584V12.0855V12.1126V12.1397V12.1668V12.1939V12.221V12.2481V12.2752V12.3024V12.3295V12.3566V12.3837V12.4108V12.4379V12.465V12.4921V12.5192V12.5463V12.5734V12.6005V12.6276V12.6547V12.6818V12.7089V12.736V12.7631V12.7902V12.8173V12.8444V12.8715V12.8986V12.9257V12.9528V12.9799V13.007V13.0341V13.0612V13.0883V13.1154V13.1425V13.1696V13.1967V13.2238V13.2509V13.278V13.3051V13.3322V13.3593V13.3864V13.4135V13.4406V13.4677V13.4948V13.5219V13.549V13.5761V13.6033V13.6304V13.6575V13.6846V13.7117V13.7388V13.7659V13.793V13.8201V13.8472V13.8743V13.9014V13.9285V13.9556V13.9827V14.0098V14.0369V14.064V14.0911V14.1182V14.1453V14.1724V14.1995V14.2266V14.2537V14.2808V14.3079V14.335V14.3621V14.3892V14.4163V14.4434V14.4705V14.4976V14.5247V14.5518V14.5789V14.606V14.6331V14.6602V14.6873V14.7144V14.7415V14.7686V14.7957V14.8228V14.8499V14.8771V14.9042V14.9313V14.9584V14.9855V15.0126V15.0397V15.0668V15.0939V15.121V15.1481V15.1752V15.2023V15.2294V15.2565V15.2836V15.3107V15.3378V15.3649V15.392V15.4191V15.4462V15.4733V15.5004V15.5275V15.5546V15.5817V15.6088V15.6359V15.663V15.6901V15.7172V15.7443V15.7714V15.7985V15.8256V15.8527V15.8798V15.9069V15.9341V15.9612V15.9883V16.0154V16.0425V16.0696V16.0967V16.1238V16.1509V16.178V16.2051V16.2322V16.2593V16.2864V16.3135V16.3406V16.3677V16.3948V16.4219V16.449V16.4761V16.5032V16.5303V16.5574V16.5845V16.6116V16.6387V16.6658V16.6929V16.72V16.7472V16.7743V16.8014V16.8285V16.8556V16.8827V16.9098V16.9369V16.964V16.9911V17.0182V17.0453V17.0724V17.0995V17.1266V17.1537V17.1808V17.2079V17.235V17.2621V17.2892V17.3163V17.3434V17.3705V17.3976V17.4247V17.4519V17.479V17.5061V17.5332V17.5603V17.5874V17.6145V17.6416V17.6687V17.6958V17.7229V17.75V17.7771V17.8042V17.8313V17.8584V17.8855V17.9126V17.9397V17.9668V17.9939V18.021V18.0482V18.0753V18.1024V18.1295V18.1566V18.1837V18.2108V18.2379V18.265V18.2921V18.3192V18.3463V18.3734V18.4005V18.4276V18.4547V18.4818V18.5089V18.536V18.5632V18.5903V18.6174V18.6445V18.6716V18.6987V18.7258V18.7529V18.78V18.8071V18.8342V18.8613V18.8884V18.9155V18.9426V18.9697V18.9968V19.024V19.0511V19.0782V19.1053V19.1324V19.1595V19.1866V19.2137V19.2408V19.2679V19.295V19.3221V19.3492V19.3763V19.4034V19.4306V19.4577V19.4848V19.5119V19.539V19.5661V19.5932V19.6203V19.6474V19.6745V19.7016V19.7287V19.7558V19.7829V19.8101V19.8372V19.8643V19.8914V19.9185V19.9456V19.9727V19.9998V20.0269V20.054V20.0811V20.1082V20.1353V20.1625V20.1896V20.2167V20.2438V20.2454C81.6952 22.4263 82.4178 24.3345 83.7537 25.7026C85.0916 27.0728 86.9714 27.8255 89.1426 27.8259M89.1426 27.8259C89.1422 27.8259 89.1418 27.8259 89.1414 27.8259L89.1444 26.8259V27.8259C89.1438 27.8259 89.1432 27.8259 89.1426 27.8259ZM89.1426 27.8259C93.9575 27.8401 98.774 27.8354 103.589 27.8306C105.996 27.8283 108.402 27.8259 110.807 27.8259C112.543 27.8259 113.86 28.3805 114.745 29.2807C115.631 30.1831 116.177 31.5307 116.178 33.2954C116.178 33.8112 116.189 34.3035 116.2 34.7823C116.222 35.7803 116.243 36.72 116.16 37.6941L116.16 37.6946C115.78 42.2218 119.138 46.2248 124.294 45.9396L124.296 45.9394C126.848 45.7923 129.388 45.8291 131.972 45.8665C133.099 45.8828 134.235 45.8992 135.384 45.9005H135.385C137.283 45.9005 138.654 46.4541 139.552 47.3603C140.451 48.2679 141 49.6554 141 51.5702V135.37C141 137.207 140.452 138.581 139.558 139.496C138.666 140.409 137.324 140.973 135.523 140.988C135.522 140.988 135.522 140.988 135.522 140.988L135.531 141.988M135.531 141.988C139.552 141.954 142 139.446 142 135.37V51.5702C142 47.36 139.571 44.9005 135.385 44.9005L135.531 141.988ZM122.628 126.053L122.628 126.057L122.628 126.075V126.094V126.112V126.131V126.149V126.167V126.186V126.204V126.222V126.241V126.259V126.277V126.296V126.314V126.332V126.351V126.369V126.387V126.406V126.424V126.442V126.461V126.479V126.498V126.516V126.534V126.553V126.571V126.589V126.608V126.626V126.644V126.663V126.681V126.699V126.718V126.736V126.754V126.773V126.791V126.809V126.828V126.846V126.865V126.883V126.901V126.92V126.938V126.956V126.975V126.993V127.011V127.03V127.048V127.066V127.085V127.103V127.121V127.14V127.158V127.176V127.195V127.213V127.232V127.25V127.268V127.287V127.305V127.323V127.342V127.36V127.378V127.397V127.415V127.433V127.452V127.47V127.488V127.507V127.525V127.543V127.562V127.58V127.598V127.617V127.635V127.654V127.672V127.69V127.709V127.727V127.745V127.764V127.782V127.8V127.819V127.837V127.855V127.874V127.892V127.91V127.929V127.947V127.965V127.984V128.002V128.02V128.039V128.057V128.076V128.094V128.112V128.131V128.149V128.167V128.186V128.204V128.222V128.241V128.259V128.277V128.296V128.314V128.332V128.351V128.369V128.387V128.406V128.424V128.442V128.461V128.479V128.498V128.516V128.534V128.553V128.571V128.589V128.608V128.626V128.644V128.663V128.681V128.699V128.718V128.736V128.754V128.773V128.791V128.809V128.828V128.846V128.864V128.883V128.901V128.919V128.938V128.956V128.975V128.993V129.011V129.03V129.048V129.066V129.085V129.103V129.121V129.14V129.158V129.176V129.195V129.213V129.231V129.25V129.268V129.286V129.305V129.323V129.341V129.36V129.378V129.396V129.415V129.433V129.452V129.47V129.488V129.507V129.525V129.543V129.562V129.58V129.598V129.617V129.635V129.653V129.672V129.69V129.708V129.727V129.745V129.763V129.782V129.8V129.818V129.837V129.855V129.873V129.892V129.91V129.929V129.947V129.965V129.984V130.002V130.02V130.039V130.057V130.075V130.094V130.112V130.13V130.149V130.167V130.185V130.204V130.222V130.24V130.259V130.277V130.295V130.314V130.332V130.35V130.369V130.387V130.405V130.424V130.442V130.461V130.479V130.497V130.516V130.534V130.552V130.571V130.589V130.607V130.626V130.644V130.662V130.681V130.699V130.717V130.736V130.754V130.772V130.791V130.809V130.827V130.846V130.864V130.882V130.901V130.919V130.938V130.956V130.974V130.993V131.011V131.029V131.048V131.066V131.084V131.103V131.121V131.139V131.158V131.176V131.194V131.213V131.231V131.249V131.268V131.286V131.304V131.323V131.341V131.359V131.378V131.396V131.414V131.433V131.451V131.47V131.488V131.506V131.525V131.543V131.561V131.58V131.598V131.616V131.635V131.653V131.671V131.69V131.708V131.726V131.745V131.763V131.781V131.8V131.818V131.836V131.855V131.873V131.891V131.91V131.928V131.947V131.965V131.983V132.002V132.02V132.038V132.057V132.075V132.093V132.112V132.13V132.148V132.167V132.185V132.203V132.222V132.24V132.258V132.277V132.295V132.313V132.332V132.35V132.368V132.387V132.405V132.424V132.442V132.46V132.479V132.497V132.515V132.534V132.552V132.57V132.589V132.607V132.625V132.644V132.662V132.68V132.699V132.717V132.735V132.754V132.772V132.79V132.809V132.827V132.845V132.864V132.882V132.901V132.919V132.937V132.956V132.974V132.992V133.011V133.029V133.047V133.066V133.084V133.102V133.121V133.139V133.157V133.176V133.194V133.212V133.231V133.249V133.267V133.286V133.304V133.322V133.341V133.359V133.378V133.396V133.414V133.433V133.451V133.469V133.488V133.506V133.524V133.543V133.561V133.579V133.598V133.616V133.634V133.653V133.671V133.689V133.708V133.726V133.744V133.763V133.781V133.8V133.818V133.836V133.855V133.873V133.891V133.91V133.928V133.946V133.965V133.983V134.001V134.02V134.038V134.056V134.075V134.093V134.111V134.13V134.148V134.166V134.185V134.203V134.222V134.24V134.258V134.277V134.295V134.313V134.332V134.35V134.368V134.387V134.405V134.423V134.442V134.46V134.478V134.497V134.515V134.533V134.552V134.57V134.589V134.607V134.625V134.644V134.662V134.68V134.699V134.717V134.735V134.754V134.772V134.79V134.809V134.827V134.845V134.864V134.882V134.9V134.919V134.937V134.956V134.974V134.992V135.011V135.029V135.047V135.066V135.084V135.102V135.121V135.139V135.157V135.176V135.194V135.212V135.231V135.249V135.267V135.286V135.304V135.323V135.341V135.359V135.378V135.396V135.414V135.433V135.45L122.628 126.053Z" stroke="black" stroke-width="2"/>
<path fill-rule="evenodd" clip-rule="evenodd" d="M46.5748 119.609C51.3248 119.612 56.0748 119.616 60.8247 119.616L115.304 119.624C119.046 119.624 121.614 122.231 121.628 126.057V135.451C121.633 139.448 124.11 141.969 128.064 141.988C129.278 141.996 130.491 142 131.703 142H0V112.907C-3.14442e-06 116.957 2.8408 119.68 6.67559 119.659C19.9739 119.588 33.2745 119.598 46.5748 119.609ZM27.0241 0C23.15 0 20.6892 2.51926 20.6787 6.48817C20.6787 7.4958 20.6806 8.50366 20.6825 9.5116C20.6862 11.5277 20.6899 13.5442 20.6787 15.5597C20.6598 19.1443 18.0182 21.8087 14.4827 21.8237H6.70083C2.46287 21.8279 0.0357727 24.2874 0.0357727 28.5574C0.079239 56.6706 0.0673212 84.7811 1.86184e-05 112.889C6.20879e-06 112.895 0 112.901 0 112.907V0H27.0241ZM131.894 142H142V135.37C142 139.446 139.552 141.954 135.531 141.988C134.319 141.996 133.106 142 131.894 142ZM142 51.5702V0H76.4494C80.1994 0 82.6833 2.53207 82.6917 6.36648V20.2438C82.698 24.1614 85.2745 26.8259 89.1444 26.8259C93.9577 26.8401 98.7711 26.8354 103.585 26.8306C105.992 26.8283 108.4 26.8259 110.807 26.8259C114.717 26.8259 117.176 29.3473 117.178 33.2948C117.178 33.7619 117.188 34.2289 117.199 34.6959C117.221 35.7234 117.244 36.7508 117.157 37.7783C116.825 41.7344 119.723 45.1909 124.238 44.9411C126.828 44.7918 129.426 44.8294 132.027 44.8669C133.146 44.8831 134.266 44.8993 135.385 44.9005C139.571 44.9005 142 47.36 142 51.5702Z" fill="white"/>
</svg>
