<svg width="232" height="72" viewBox="0 0 232 72" fill="none" xmlns="http://www.w3.org/2000/svg">
<path d="M35.6947 9.30492L10.9474 27.0876C5.76212 30.8136 4.57913 38.0377 8.30516 43.223L8.31873 43.2419C12.0448 48.4272 19.2688 49.6102 24.4541 45.8842L49.2014 28.1015C54.3867 24.3755 55.5696 17.1514 51.8436 11.9661L51.83 11.9472C48.104 6.76188 40.88 5.5789 35.6947 9.30492Z" fill="#EA4335"/>
<path fill-rule="evenodd" clip-rule="evenodd" d="M11.5988 27.9944C6.91425 31.3606 5.84551 37.887 9.21168 42.5715L9.22525 42.5904C12.5914 47.2749 19.1178 48.3436 23.8023 44.9775L48.5495 27.1948C53.234 23.8286 54.3028 17.3022 50.9366 12.6177L50.923 12.5988C47.5569 7.91432 41.0305 6.84558 36.346 10.2117L11.5988 27.9944ZM7.39814 43.8746C3.31226 38.1885 4.6095 30.2668 10.2956 26.1809L35.0428 8.39821C40.7289 4.31233 48.6507 5.60957 52.7366 11.2957L52.7502 11.3146C56.836 17.0007 55.5388 24.9224 49.8527 29.0083L25.1055 46.791C19.4194 50.8769 11.4976 49.5796 7.41172 43.8935L7.39814 43.8746Z" fill="#1E1E1E"/>
<path d="M8.31971 29.7327L8.30613 29.7515C4.58011 34.9369 5.76309 42.1609 10.9484 45.8869L35.6956 63.6696C40.8809 67.3957 48.105 66.2127 51.831 61.0274L51.8446 61.0085C55.5706 55.8232 54.3876 48.5991 49.2023 44.8731L24.4551 27.0904C19.2698 23.3644 12.0457 24.5473 8.31971 29.7327Z" fill="#4285F4"/>
<path fill-rule="evenodd" clip-rule="evenodd" d="M9.21314 30.4031C5.84698 35.0876 6.91571 41.614 11.6002 44.9802L36.3475 62.7629C41.032 66.129 47.5583 65.0603 50.9245 60.3758L50.9381 60.3569C54.3042 55.6724 53.2355 49.146 48.551 45.7798L23.8038 27.9972C19.1192 24.631 12.5929 25.6997 9.22672 30.3842L9.21314 30.4031ZM10.2971 46.7937C4.61096 42.7078 3.31372 34.7861 7.39961 29.1L7.41318 29.0811C11.4991 23.395 19.4208 22.0977 25.1069 26.1836L49.8542 43.9663C55.5403 48.0522 56.8375 55.9739 52.7516 61.66L52.738 61.6789C48.6522 67.365 40.7304 68.6623 35.0443 64.5764L10.2971 46.7937Z" fill="#1E1E1E"/>
<path d="M95.4383 27.0751L70.6911 44.8577C65.5058 48.5838 64.3228 55.8078 68.0488 60.9931L68.0624 61.012C71.7884 66.1973 79.0125 67.3803 84.1978 63.6543L108.945 45.8716C114.13 42.1456 115.313 34.9215 111.587 29.7362L111.574 29.7173C107.848 24.532 100.624 23.349 95.4383 27.0751Z" fill="#F9AB00"/>
<path fill-rule="evenodd" clip-rule="evenodd" d="M71.3429 45.7645C66.6584 49.1307 65.5897 55.657 68.9558 60.3416L68.9694 60.3605C72.3356 65.045 78.8619 66.1137 83.5464 62.7475L108.294 44.9648C112.978 41.5987 114.047 35.0723 110.681 30.3878L110.667 30.3689C107.301 25.6844 100.775 24.6157 96.0901 27.9818L71.3429 45.7645ZM67.1423 61.6447C63.0564 55.9586 64.3536 48.0369 70.0397 43.951L94.787 26.1683C100.473 22.0824 108.395 23.3796 112.481 29.0658L112.494 29.0846C116.58 34.7707 115.283 42.6925 109.597 46.7784L84.8496 64.5611C79.1635 68.647 71.2417 67.3497 67.1559 61.6636L67.1423 61.6447Z" fill="#1E1E1E"/>
<path d="M68.0599 11.9542L68.0464 11.9731C64.3203 17.1584 65.5033 24.3825 70.6886 28.1085L95.4359 45.8912C100.621 49.6172 107.845 48.4342 111.571 43.2489L111.585 43.23C115.311 38.0447 114.128 30.8206 108.943 27.0946L84.1953 9.31194C79.01 5.58592 71.786 6.7689 68.0599 11.9542Z" fill="#34A853"/>
<path fill-rule="evenodd" clip-rule="evenodd" d="M68.9534 12.6247C65.5872 17.3093 66.6559 23.8356 71.3405 27.2018L96.0877 44.9845C100.772 48.3506 107.299 47.2819 110.665 42.5974L110.678 42.5785C114.044 37.894 112.976 31.3676 108.291 28.0015L83.544 10.2188C78.8595 6.8526 72.3331 7.92134 68.967 12.6058L68.9534 12.6247ZM70.0373 29.0153C64.3512 24.9294 63.054 17.0077 67.1398 11.3216L67.1534 11.3027C71.2393 5.61659 79.1611 4.31935 84.8472 8.40523L109.594 26.1879C115.28 30.2738 116.578 38.1956 112.492 43.8817L112.478 43.9006C108.392 49.5867 100.471 50.8839 94.7845 46.798L70.0373 29.0153Z" fill="#1E1E1E"/>
<g clip-path="url(#clip0_275_116)">
<path d="M143.285 9.79681C141.676 9.79681 140.06 9.7338 138.455 9.81972C137.5 9.87127 137.33 9.47222 137.382 8.66075C137.414 8.15095 137.622 8.01539 138.088 8.0173C140.219 8.03067 142.35 8.04594 144.479 8.0173C145.204 8.00584 145.345 8.39917 145.345 8.97197C145.345 12.8193 143.264 15.9831 139.236 16.8442C135.207 17.7053 131.312 15.7368 129.674 12.1262C128.012 8.46409 129.129 3.97904 132.274 1.67828C135.419 -0.622473 139.984 -0.527005 142.802 1.94177C142.942 2.06397 143.062 2.21099 143.289 2.45157L142 3.664C139.213 1.28878 135.715 1.22578 133.066 3.41388C130.907 5.19912 130.202 9.04262 131.474 11.5534C132.923 14.4002 135.866 15.7139 139.186 15.0036C141.538 14.4881 143.222 12.4069 143.285 9.79681Z" fill="black"/>
<path d="M143.302 52.0792L142.103 53.3871C138.512 50.9775 135.468 50.905 133.017 53.1083C130.932 54.9757 130.229 58.6283 131.461 61.183C132.776 63.9152 135.766 65.3129 138.882 64.7267C141.257 64.2799 143.411 62.151 143.314 59.4588H137.467V57.7404H140.392C141.76 57.7404 143.127 57.7652 144.494 57.727C145.067 57.7118 145.328 57.918 145.345 58.4679C145.469 62.3438 143.213 65.8188 139.044 66.5215C135.417 67.1306 132.472 65.9754 130.34 62.9434C128.001 59.6192 128.576 54.8287 131.632 51.8921C134.449 49.1847 139.375 48.9345 142.529 51.3441C142.768 51.537 142.978 51.7737 143.302 52.0792Z" fill="black"/>
<path d="M183.131 6.58533L183.29 5.14569C183.643 5.12468 183.981 5.12086 184.313 5.08268C184.911 5.01776 185.077 5.29652 185.077 5.85978C185.052 9.48753 185.1 13.1153 185.033 16.743C184.985 19.2825 183.653 21.0868 181.306 21.6672C178.53 22.3546 176.365 21.778 174.887 19.7789C174.667 19.4387 174.467 19.0862 174.287 18.723L175.906 18.049C177.764 20.1588 179.492 20.7221 181.291 19.8476C182.818 19.0992 183.486 17.396 183.131 15.2556C182.301 15.7292 181.499 16.4013 180.578 16.6743C177.229 17.6481 174.054 15.1907 173.8 11.5191C173.684 9.83312 173.923 8.22354 174.98 6.82208C176.733 4.48314 180.428 3.63539 183.131 6.58533ZM183.171 10.826C183.171 10.509 183.196 10.1902 183.171 9.87131C183.109 9.05959 182.782 8.2907 182.241 7.68239C181.7 7.07409 180.975 6.65989 180.176 6.50323C178.562 6.17864 176.93 6.8851 176.181 8.40111C175.803 9.13849 175.606 9.95596 175.609 10.7849C175.612 11.6138 175.813 12.43 176.197 13.1649C176.409 13.6289 176.727 14.0368 177.124 14.3563C177.522 14.6759 177.989 14.8982 178.488 15.0055C181.212 15.5898 183.194 13.8294 183.171 10.826Z" fill="black"/>
<path d="M129.755 25.4764C132.152 25.4764 134.506 25.1785 136.755 25.5394C141.511 26.3031 143.421 30.8531 142.724 34.8722C142.019 38.9506 139.357 41.2666 135.205 41.4957C133.41 41.595 131.607 41.5129 129.755 41.5129V25.4764ZM131.63 33.3963C131.63 35.1758 131.667 36.9553 131.613 38.7425C131.59 39.5062 131.867 39.7468 132.598 39.6971C133.33 39.6475 134.126 39.6971 134.89 39.6857C138.212 39.6513 140.411 37.7191 140.852 34.4541C141.328 30.9371 139.751 28.1532 136.612 27.3456C135.287 27.0096 133.841 27.1547 132.451 27.0649C131.835 27.021 131.613 27.2559 131.623 27.8764C131.651 29.7132 131.63 31.5557 131.63 33.3982V33.3963Z" fill="black"/>
<path d="M200.758 40.0103V46.3397H198.9V30.1543C200.351 29.8201 200.428 29.864 200.848 31.3896C201.293 31.0211 201.69 30.6144 202.158 30.3223C204.567 28.8158 207.615 29.6025 209.304 32.1381C211.193 34.9773 210.322 39.3783 207.529 41.112C206.585 41.7183 205.464 41.9901 204.348 41.8838C203.231 41.7776 202.182 41.2993 201.369 40.5258C201.214 40.3788 201.046 40.2509 200.758 40.0103ZM200.68 36.0007C200.68 36.0446 200.693 36.3291 200.728 36.6117C200.951 38.3606 202.375 39.8823 204.006 40.1248C205.679 40.373 207.322 39.4241 208.004 37.7076C208.289 37.0317 208.424 36.3022 208.4 35.5691C208.376 34.8361 208.193 34.117 207.865 33.4612C206.761 31.2273 204.046 30.622 202.173 32.1992C201.09 33.0946 200.651 34.3414 200.68 35.9911V36.0007Z" fill="black"/>
<path d="M183.049 64.7019V71.0982C183.005 71.1268 182.956 71.1879 182.9 71.1936C181.159 71.3712 181.157 71.3712 181.157 69.6375V54.7943H182.889C182.912 55.2697 182.939 55.7623 182.969 56.339C183.107 56.2645 183.235 56.2378 183.296 56.1595C185.457 53.3241 190.383 53.8186 192.079 57.7996C193.224 60.5089 192.487 63.9343 190.303 65.5916C188.119 67.2489 185.53 67.0752 183.563 65.183L183.049 64.7019ZM190.713 60.6159C190.733 58.3418 189.281 56.4363 187.468 56.19C184.164 55.7451 182.669 58.8631 183 61.1677C183.238 62.8212 184.01 64.2054 185.715 64.7611C188.283 65.6012 190.685 63.5849 190.713 60.6082V60.6159Z" fill="black"/>
<path d="M177.224 38.099L178.751 38.8875C177.487 41.0718 175.656 42.0227 173.252 41.8604C170.948 41.7057 169.307 40.5372 168.406 38.4236C167.621 36.5792 167.684 34.708 168.509 32.875C169.601 30.4425 171.671 29.337 174.493 29.6616C176.731 29.9175 178.405 31.5843 178.885 34.0531C179.001 34.666 179.056 35.2923 179.154 36.0197C178.654 36.0503 178.285 36.0923 177.919 36.0923C175.501 36.0923 173.084 36.1133 170.663 36.0923C169.909 36.0923 169.708 36.3233 169.922 37.0603C170.361 38.6393 171.301 39.699 172.912 40.0618C174.524 40.4246 175.841 39.8422 176.855 38.5515L177.224 38.099ZM170.186 34.4712H175.849C176.07 34.4712 176.37 34.5533 176.496 34.4426C176.687 34.2689 176.929 33.9175 176.878 33.7209C176.509 32.4225 175.612 31.634 174.3 31.3437C172.19 30.8798 169.966 32.6135 170.178 34.477L170.186 34.4712Z" fill="black"/>
<path d="M222.431 38.941C221.431 41.0413 219.399 42.0609 216.648 41.8509C214.666 41.7058 212.526 39.9873 212.006 37.9921C211.346 35.4622 211.586 33.0927 213.515 31.0917C216.058 28.453 220.94 29.3466 222.252 32.7586C222.634 33.7381 222.737 34.8207 223.016 36.077H213.711C213.637 36.8647 213.818 37.6553 214.226 38.3327C214.635 39.0101 215.25 39.5385 215.982 39.8403C216.7 40.1551 217.497 40.2412 218.265 40.0872C219.034 39.9331 219.737 39.5463 220.278 38.9792C221.192 38.0264 221.251 38.0245 222.431 38.941ZM220.669 34.4159C220.581 32.5065 219.13 31.2273 217.232 31.2769C215.437 31.3228 213.857 32.7834 213.9 34.4159H220.669Z" fill="black"/>
<path d="M146.531 36.0618C146.426 37.8317 147.358 39.2542 148.902 39.8804C150.645 40.5945 152.118 40.0828 153.842 38.1181L155.35 38.8551C154.514 40.4781 153.219 41.3964 151.55 41.784C148.734 42.4409 145.758 40.7931 144.893 38.1563C143.8 34.8207 145.072 31.2044 147.822 30.0626C149.761 29.2569 151.696 29.3982 153.454 30.6087C154.957 31.6416 155.822 33.9042 155.566 36.0618H146.531ZM146.722 34.4235H153.439C153.59 32.7433 152.121 31.3323 150.223 31.2808C148.326 31.2292 146.664 32.7204 146.729 34.4235H146.722Z" fill="black"/>
<path d="M193.335 11.2518C193.282 11.9971 193.454 12.7412 193.828 13.3879C194.203 14.0346 194.762 14.5541 195.435 14.8795C197.029 15.5974 198.748 15.3263 199.827 14.1826C200.781 13.1706 200.781 13.1706 202.118 14.0489C201.528 15.2537 200.617 16.1721 199.365 16.596C194.664 18.1865 191.345 14.9215 191.317 11.1296C191.3 8.76579 192.056 6.81062 194.064 5.49891C196.774 3.72704 201.408 4.73518 202.244 8.97773C202.693 11.2498 202.681 11.2518 200.357 11.2518H193.331H193.335ZM200.279 9.60399C200.398 7.87413 199.09 6.54904 197.186 6.4383C195.221 6.31228 193.558 7.70038 193.482 9.60399H200.279Z" fill="black"/>
<path d="M166.369 4.70844C169.827 4.70844 172.403 7.38152 172.374 10.9463C172.347 14.3945 169.713 17.0562 166.379 17.0084C162.952 16.9588 160.437 14.3793 160.433 10.91C160.429 7.36434 162.969 4.71034 166.369 4.70844ZM170.423 10.9081C170.423 8.31328 168.704 6.39821 166.392 6.41921C164.08 6.44021 162.329 8.32855 162.323 10.8107C162.323 13.3959 164.017 15.2556 166.39 15.2575C168.764 15.2595 170.423 13.4685 170.423 10.9081Z" fill="black"/>
<path d="M153.166 4.70845C156.498 4.70845 159.129 7.38154 159.072 10.8737C159.014 14.3659 156.706 17.0275 153.044 17.0008C149.592 16.976 147.175 14.3984 147.182 10.8413C147.192 7.24597 149.674 4.70081 153.166 4.70845ZM149.067 10.8413C149.067 12.8671 150.107 14.4977 151.74 15.0227C153.62 15.628 155.327 15.0705 156.423 13.4952C157.445 12.0251 157.342 9.33097 156.213 7.94479C155.694 7.29609 154.988 6.8238 154.19 6.59271C153.392 6.36163 152.542 6.38306 151.757 6.65407C150.113 7.22115 149.069 8.85363 149.067 10.8413Z" fill="black"/>
<path d="M166.671 60.5872C166.671 64.0775 164.124 66.7391 160.74 66.7124C157.065 66.6857 154.714 63.7434 154.821 60.4001C154.921 56.9633 157.38 54.3666 160.74 54.3704C164.154 54.3723 166.676 57.0149 166.671 60.5872ZM156.725 60.507L156.479 60.6044C156.836 61.5228 157.051 62.5443 157.582 63.3405C158.571 64.8012 160.24 65.2728 161.873 64.7954C163.347 64.3658 164.578 62.8861 164.737 61.3281C164.962 59.2011 164.164 57.3604 162.621 56.5948C159.778 55.1857 156.555 57.1466 156.725 60.507Z" fill="black"/>
<path d="M190.778 41.8757C187.366 41.8413 184.941 39.2026 184.972 35.5749C185.001 32.0655 187.509 29.6349 191.009 29.6082C194.127 29.5872 196.846 32.0521 196.863 35.8078C196.881 39.3248 194.236 41.9081 190.778 41.8757ZM186.856 35.6875C186.856 37.8374 187.962 39.4833 189.772 39.9854C191.401 40.4341 192.827 40.016 193.896 38.7501C195.149 37.2799 195.179 35.5405 194.559 33.8221C193.913 32.0388 191.953 30.9943 190.215 31.3399C188.126 31.7772 186.86 33.4211 186.856 35.6875Z" fill="black"/>
<path d="M168.624 54.7561H170.503C170.503 55.3499 170.503 55.9017 170.503 56.4745C170.535 58.5347 170.527 60.5987 170.623 62.657C170.678 63.8293 171.387 64.5835 172.532 64.8642C173.678 65.1448 174.856 64.952 175.543 63.9725C176.119 63.1568 176.482 62.2106 176.601 61.2192C176.765 59.455 176.649 57.6659 176.649 55.8864V54.8382C176.793 54.7904 176.941 54.7546 177.092 54.7313C178.583 54.6587 178.583 54.6606 178.583 56.1824C178.583 59.0706 178.583 61.9607 178.583 64.8527C178.583 66.4986 178.554 66.5215 176.805 66.2102C176.754 65.7921 176.704 65.3663 176.67 65.0646C175.78 65.5573 174.965 66.2427 174.033 66.4833C171.073 67.247 168.946 65.8608 168.67 62.7944C168.437 60.1595 168.624 57.4845 168.624 54.7561Z" fill="black"/>
<path d="M193.854 63.5696L195.431 62.8574C196.218 64.2894 197.356 65.0971 198.992 64.9902C199.397 64.9634 199.88 64.9405 200.174 64.7152C200.609 64.3811 201.064 63.919 201.226 63.4188C201.451 62.7276 200.957 62.1853 200.332 61.9219C199.607 61.6183 198.826 61.4522 198.085 61.181C197.199 60.8545 196.265 60.5872 195.467 60.1061C193.957 59.1934 193.724 57.116 194.881 55.7948C196.76 53.6506 201.182 53.9866 202.685 56.3924C202.739 56.4983 202.781 56.6097 202.811 56.7246C201.738 57.6468 201.612 57.6488 200.588 56.7571C199.7 55.9838 197.684 55.8807 196.729 56.5662C195.866 57.1791 195.859 58.3227 196.813 58.8154C197.589 59.2144 198.48 59.3882 199.311 59.6784C200.141 59.9686 201.029 60.192 201.759 60.6579C203.637 61.8569 203.746 64.0947 202.079 65.5687C199.945 67.4418 194.963 67.1382 193.854 63.5696Z" fill="black"/>
<path d="M156.24 30.1237C158.039 29.7972 158.098 29.8526 158.694 31.4507C159.57 33.7934 160.483 36.1228 161.388 38.456C161.505 38.7005 161.636 38.9377 161.781 39.1663C162.482 37.3964 163.118 35.7696 163.769 34.1428C164.128 33.2283 164.479 32.3118 164.832 31.3953C165.426 29.8678 165.516 29.8125 167.314 30.139C166.661 31.7619 166.024 33.3676 165.371 34.9696C164.559 36.9648 163.715 38.9467 162.931 40.9516C162.673 41.6103 162.167 41.5874 161.686 41.5014C161.275 41.4289 160.664 41.2647 160.54 40.9726C159.087 37.4956 157.709 33.9863 156.315 30.4845C156.279 30.3667 156.254 30.246 156.24 30.1237Z" fill="black"/>
<path d="M189.34 0.513628V16.6056H187.406V1.90362C187.406 0.204309 187.504 0.13176 189.34 0.513628Z" fill="black"/>
<path d="M149.679 66.2637H147.793V54.7618H149.431C149.469 55.2506 149.508 55.7375 149.559 56.3809C149.962 55.959 150.229 55.5618 150.598 55.3212C151.121 54.9833 151.696 54.6167 152.289 54.5155C154.611 54.1222 154.554 54.6912 154.26 56.5413L153.45 56.421C151.394 56.1041 149.729 57.4692 149.689 59.5657C149.653 61.4407 149.689 63.3157 149.689 65.1925L149.679 66.2637Z" fill="black"/>
<path d="M226.682 31.6435C227.588 30.3986 228.57 29.7151 229.891 29.6292C231.317 29.5375 231.503 29.7113 231.447 31.107C231.447 31.3208 231.388 31.5347 231.358 31.7485C228.222 31.2044 226.758 32.4531 226.756 35.5958V38.4599C226.756 39.0957 226.756 39.7315 226.756 40.3692C226.756 41.4709 226.183 41.8967 225.166 41.4938C224.975 41.4232 224.81 41.0661 224.81 40.8408C224.787 37.4765 224.81 34.1104 224.782 30.7461C224.782 30.0225 225.175 30.0148 225.692 30.0206C226.21 30.0263 226.683 29.99 226.615 30.7308C226.618 31.0362 226.64 31.341 226.682 31.6435Z" fill="black"/>
<path d="M182.871 41.4595H181.096V25.3847H182.871V41.4595Z" fill="black"/>
</g>
<defs>
<clipPath id="clip0_275_116">
<rect width="102.562" height="71.27" fill="white" transform="translate(128.893)"/>
</clipPath>
</defs>
</svg>
