<svg width="232" height="67" viewBox="0 0 232 67" fill="none" xmlns="http://www.w3.org/2000/svg">
<path d="M1.28683 38.9091H4.0046C4.46976 38.9091 4.91588 39.0938 5.24491 39.4226C5.57394 39.7514 5.75895 40.1974 5.75927 40.6626V56.7916C5.75927 59.1174 6.68322 61.348 8.32785 62.9927C9.97249 64.6373 12.2031 65.5612 14.5289 65.5612H21.5427C21.7287 65.5612 21.9071 65.4874 22.0388 65.356C22.1704 65.2246 22.2445 65.0463 22.2448 64.8603V55.0173C22.2445 54.8313 22.1704 54.653 22.0388 54.5216C21.9071 54.3902 21.7287 54.3164 21.5427 54.3164H16.1586C15.6943 54.3161 15.2491 54.1317 14.9204 53.8038C14.5918 53.4758 14.4065 53.0309 14.4052 52.5666V13.5828C14.4052 13.1176 14.5899 12.6715 14.9187 12.3425C15.2475 12.0135 15.6935 11.8285 16.1586 11.8281H21.5427C21.7287 11.8281 21.9071 11.7543 22.0388 11.6229C22.1704 11.4915 22.2445 11.3132 22.2448 11.1272V1.28663C22.2445 1.10063 22.1704 0.922361 22.0388 0.790954C21.9071 0.659547 21.7287 0.585743 21.5427 0.585743H14.5289C12.2031 0.585743 9.97249 1.50969 8.32785 3.15432C6.68322 4.79895 5.75927 7.02956 5.75927 9.35542V25.4734C5.75927 25.7038 5.71388 25.9319 5.62568 26.1447C5.53749 26.3575 5.40822 26.5509 5.24527 26.7137C5.08232 26.8765 4.88887 27.0057 4.67599 27.0937C4.46312 27.1818 4.23497 27.227 4.0046 27.2268H1.28683C1.10083 27.2272 0.922555 27.3013 0.791148 27.4329C0.659741 27.5645 0.585937 27.7429 0.585938 27.9289V38.207C0.585937 38.393 0.659741 38.5714 0.791148 38.703C0.922555 38.8347 1.10083 38.9088 1.28683 38.9091Z" fill="#FFE8A5"/>
<path fill-rule="evenodd" clip-rule="evenodd" d="M7.91346 2.74013C9.66794 0.985653 12.0475 0 14.5287 0H21.5425C21.8837 -5.25852e-07 22.2109 0.135372 22.4523 0.376399C22.6938 0.617426 22.8297 0.944412 22.8303 1.28557L22.8303 1.28659L22.8303 11.1282C22.8297 11.4694 22.6938 11.7964 22.4523 12.0374C22.2109 12.2784 21.8837 12.4138 21.5425 12.4138H16.1588C15.8489 12.414 15.5518 12.5373 15.3328 12.7565C15.1137 12.9757 14.9907 13.2729 14.9907 13.5828V52.5656C14.9917 52.8747 15.1151 53.1708 15.3339 53.3891C15.5529 53.6076 15.8495 53.7304 16.1588 53.7307H21.5425C21.8837 53.7307 22.2109 53.866 22.4523 54.1071C22.6938 54.3481 22.8297 54.6751 22.8303 55.0162L22.8303 55.0173L22.8303 64.8613C22.8297 65.2025 22.6938 65.5295 22.4523 65.7705C22.2109 66.0115 21.8837 66.1469 21.5425 66.1469H14.5287C12.0475 66.1469 9.66794 65.1613 7.91346 63.4068C6.15899 61.6523 5.17334 59.2727 5.17334 56.7915V40.6629C5.17312 40.3531 5.04987 40.0559 4.83067 39.8369C4.61147 39.6178 4.31426 39.4948 4.00437 39.4948H1.28557C0.944407 39.4942 0.617423 39.3582 0.376399 39.1168C0.135372 38.8753 -5.25852e-07 38.5481 0 38.207V27.9289C-5.25852e-07 27.5878 0.135372 27.2605 0.376399 27.0191C0.617426 26.7776 0.944411 26.6417 1.28557 26.6411L1.28659 26.6411L4.00478 26.6411C4.1582 26.6412 4.31014 26.6111 4.45191 26.5524C4.59368 26.4938 4.7225 26.4078 4.83103 26.2994C4.93955 26.1909 5.02563 26.0621 5.08437 25.9204C5.1431 25.7787 5.17334 25.6268 5.17334 25.4734V9.35538C5.17334 6.87418 6.15899 4.4946 7.91346 2.74013ZM14.5287 1.17141C12.3582 1.17141 10.2766 2.03365 8.74178 3.56844C7.20699 5.10323 6.34475 7.18486 6.34475 9.35538V25.4734C6.34475 25.7807 6.28419 26.085 6.16654 26.3689C6.04888 26.6528 5.87643 26.9107 5.65905 27.128C5.44167 27.3452 5.18361 27.5175 4.89962 27.6349C4.61563 27.7524 4.31128 27.8127 4.00396 27.8125L4.00437 27.2268V27.8125H4.00396H1.28762L1.28659 27.2268V27.8125H1.28762C1.25678 27.8126 1.22722 27.8248 1.20544 27.8467C1.18365 27.8685 1.17141 27.8981 1.17141 27.9289V38.207C1.17141 38.2378 1.18365 38.2674 1.20544 38.2892C1.22723 38.311 1.25678 38.3233 1.28762 38.3234H1.28659V38.9091L1.28762 38.3234H4.00437C4.62479 38.3234 5.21983 38.5697 5.65869 39.0083C6.09755 39.4468 6.34432 40.0417 6.34475 40.6621L6.34475 40.6625L6.34475 56.7915C6.34475 58.9621 7.20699 61.0437 8.74178 62.5785C10.2766 64.1133 12.3582 64.9755 14.5287 64.9755H21.5425C21.5733 64.9755 21.6029 64.9633 21.6247 64.9415C21.6466 64.9197 21.6589 64.8901 21.6589 64.8593V64.8603H22.2446L21.6589 64.8593V55.0183L22.2446 55.0173H21.6589V55.0183C21.6589 54.9874 21.6466 54.9579 21.6247 54.9361C21.6029 54.9143 21.5733 54.9021 21.5425 54.9021H16.158C15.5387 54.9016 14.9448 54.6558 14.5065 54.2183C14.0681 53.7809 13.821 53.1875 13.8193 52.5682L13.8193 52.5666V13.5828C13.8193 12.9623 14.0656 12.3673 14.5042 11.9284C14.9427 11.4896 15.5376 11.2428 16.158 11.2424H21.5425C21.5733 11.2424 21.6029 11.2302 21.6247 11.2084C21.6466 11.1866 21.6589 11.157 21.6589 11.1262V11.1272H22.2446L21.6589 11.1262V1.28762L22.2446 1.28659H21.6589V1.28762C21.6589 1.25678 21.6466 1.22722 21.6247 1.20544C21.6029 1.18365 21.5733 1.17141 21.5425 1.17141H14.5287Z" fill="#1E1E1E"/>
<path d="M230.712 27.2379H227.994C227.53 27.2379 227.084 27.0535 226.755 26.7252C226.427 26.3969 226.242 25.9515 226.241 25.4869V9.35542C226.241 7.02956 225.317 4.79895 223.672 3.15432C222.028 1.50969 219.797 0.585743 217.471 0.585743H210.456C210.27 0.585743 210.092 0.659586 209.961 0.791028C209.829 0.92247 209.755 1.10074 209.755 1.28663V11.1272C209.755 11.3131 209.829 11.4914 209.961 11.6228C210.092 11.7543 210.27 11.8281 210.456 11.8281H215.84C216.306 11.8281 216.752 12.013 217.081 12.3421C217.41 12.6711 217.595 13.1174 217.595 13.5828V52.5666C217.595 53.032 217.41 53.4783 217.081 53.8074C216.752 54.1364 216.306 54.3213 215.84 54.3213H210.456C210.364 54.3213 210.273 54.3394 210.188 54.3746C210.103 54.4099 210.026 54.4615 209.961 54.5266C209.896 54.5917 209.844 54.6689 209.809 54.754C209.774 54.839 209.755 54.9301 209.755 55.0222V64.8628C209.755 65.0487 209.829 65.227 209.961 65.3584C210.092 65.4898 210.27 65.5637 210.456 65.5637H217.471C219.797 65.5637 222.028 64.6397 223.672 62.9951C225.317 61.3505 226.241 59.1199 226.241 56.794V40.6736C226.241 40.2085 226.426 39.7625 226.755 39.4337C227.083 39.1049 227.529 38.9201 227.994 38.9201H230.712C230.898 38.9198 231.077 38.8457 231.208 38.7141C231.34 38.5825 231.414 38.4041 231.414 38.218V27.9375C231.413 27.7518 231.339 27.5741 231.207 27.443C231.076 27.3119 230.898 27.2382 230.712 27.2379Z" fill="#FFE8A5"/>
<path fill-rule="evenodd" clip-rule="evenodd" d="M209.547 0.376846C209.788 0.135561 210.115 1.14441e-05 210.457 1.14441e-05H217.472C219.953 1.14441e-05 222.332 0.985665 224.087 2.74014C225.841 4.49461 226.827 6.87419 226.827 9.35539V25.486C226.827 25.7954 226.951 26.092 227.17 26.3107C227.388 26.5293 227.685 26.6521 227.995 26.6521H230.713C231.054 26.6527 231.38 26.7879 231.621 27.0281C231.862 27.2683 231.998 27.5941 232 27.9344L232 27.936V38.219C232 38.5601 231.864 38.8871 231.623 39.1283C231.382 39.3695 231.055 39.5052 230.713 39.5058H227.995C227.685 39.5058 227.388 39.6289 227.169 39.8478C226.95 40.0668 226.827 40.3639 226.827 40.6736V56.794C226.827 59.2752 225.841 61.6548 224.087 63.4092C222.332 65.1637 219.953 66.1494 217.472 66.1494H210.457C210.115 66.1494 209.788 66.0138 209.547 65.7725C209.305 65.5313 209.17 65.204 209.17 64.8628V55.0222C209.17 54.8532 209.203 54.6859 209.268 54.5298C209.333 54.3737 209.427 54.2319 209.547 54.1124C209.666 53.9929 209.808 53.8982 209.964 53.8335C210.12 53.7688 210.288 53.7356 210.457 53.7356H215.841C216.151 53.7356 216.448 53.6124 216.667 53.3932C216.886 53.174 217.01 52.8766 217.01 52.5666V13.5828C217.01 13.2728 216.886 12.9754 216.667 12.7562C216.448 12.537 216.151 12.4138 215.841 12.4138H210.457C210.115 12.4138 209.788 12.2783 209.547 12.037C209.305 11.7957 209.17 11.4685 209.17 11.1272V1.28661C209.17 0.945363 209.305 0.618117 209.547 0.376846ZM210.457 1.17143C210.426 1.17143 210.397 1.18356 210.375 1.20516C210.353 1.22677 210.341 1.25608 210.341 1.28661V11.1272C210.341 11.1578 210.353 11.1871 210.375 11.2087C210.397 11.2303 210.426 11.2424 210.457 11.2424H215.841C216.461 11.2424 217.057 11.489 217.496 11.9279C217.934 12.3668 218.181 12.9621 218.181 13.5828V52.5666C218.181 53.1873 217.934 53.7826 217.496 54.2215C217.057 54.6604 216.461 54.907 215.841 54.907H210.457C210.441 54.907 210.426 54.91 210.412 54.9157C210.398 54.9215 210.386 54.93 210.375 54.9407C210.364 54.9514 210.356 54.9641 210.35 54.9781C210.344 54.9921 210.341 55.007 210.341 55.0222V64.8628C210.341 64.8933 210.353 64.9226 210.375 64.9442C210.397 64.9658 210.426 64.978 210.457 64.978H217.472C219.642 64.978 221.724 64.1157 223.258 62.5809C224.793 61.0461 225.655 58.9645 225.655 56.794V40.6736C225.655 40.0532 225.902 39.4582 226.341 39.0195C226.779 38.5809 227.374 38.3344 227.995 38.3344H230.711C230.743 38.3344 230.772 38.322 230.794 38.3C230.816 38.278 230.829 38.2481 230.829 38.217V27.9397C230.828 27.909 230.816 27.8796 230.794 27.8579C230.772 27.8359 230.742 27.8236 230.711 27.8235H227.995C227.375 27.8235 226.78 27.5776 226.342 27.1396C225.903 26.7016 225.656 26.1075 225.655 25.4877V9.35539C225.655 7.18487 224.793 5.10325 223.258 3.56845C221.724 2.03366 219.642 1.17143 217.472 1.17143H210.457Z" fill="#1E1E1E"/>
<path d="M52.0898 2.64429C49.6023 1.27193 46.6399 0.585743 43.2025 0.585743H32.2554V32.9712H43.2025C46.6391 32.9712 49.6015 32.2928 52.0898 30.9359C54.5192 29.6387 56.5163 27.6594 57.8353 25.2418C59.1767 22.7993 59.8477 19.9811 59.8485 16.787C59.8494 13.593 59.1783 10.7784 57.8353 8.3433C56.5083 5.93044 54.5133 3.95166 52.0898 2.64429ZM52.4966 22.2496C51.7071 23.8082 50.4501 25.0811 48.9015 25.89C47.3028 26.7502 45.3125 27.1799 42.9304 27.179H38.3624V6.37174H42.9304C45.3125 6.37174 47.3028 6.80143 48.9015 7.66079C50.4454 8.46583 51.7015 9.73008 52.4966 11.2792C53.2955 12.8313 53.6954 14.6631 53.6962 16.7748C53.6962 18.8578 53.2963 20.6836 52.4966 22.252V22.2496Z" fill="#1E1E1E"/>
<path d="M80.8802 10.7633C79.1901 9.70708 77.1095 9.17938 74.6384 9.18019C72.3454 9.18019 70.3097 9.74548 68.5313 10.876C66.7687 11.9919 65.322 13.5416 64.3297 15.3767C63.3041 17.2472 62.7747 19.3493 62.7919 21.4825C62.7919 23.8351 63.3123 25.9308 64.353 27.7697C65.364 29.5809 66.8497 31.0823 68.6502 32.1122C70.4702 33.1684 72.5427 33.6966 74.8675 33.6966C77.4309 33.6966 79.5871 33.1464 81.336 32.046C83.1059 30.9231 84.5673 29.3762 85.5879 27.5454L80.7932 25.1928C80.2383 26.1401 79.4622 26.9389 78.5313 27.5209C77.5657 28.1401 76.3747 28.4493 74.9582 28.4485C73.8113 28.4638 72.6808 28.175 71.6817 27.6116C70.6867 27.0386 69.8783 26.1907 69.3535 25.1695C68.9739 24.4418 68.7219 23.6543 68.6085 22.8414H85.8955C85.9261 22.6907 85.9555 22.4419 85.9862 22.0952C86.0168 21.7484 86.0315 21.333 86.0315 20.8502C86.0315 18.7092 85.5945 16.7568 84.7204 14.9932C83.8651 13.2491 82.5338 11.7826 80.8802 10.7633ZM68.8328 18.6336C68.9515 18.2201 69.1081 17.8186 69.3009 17.434C69.8038 16.4087 70.578 15.5408 71.5395 14.9245C72.4777 14.3245 73.5701 14.0099 74.6837 14.019C75.4808 14.0047 76.2725 14.151 77.0118 14.4491C77.6529 14.7109 78.2424 15.0842 78.753 15.5519C79.2183 15.98 79.6038 16.4874 79.8914 17.0505C80.1479 17.5421 80.3017 18.0807 80.3435 18.6336H68.8328Z" fill="#1E1E1E"/>
<path d="M99.1355 24.9207H98.774L92.939 9.90312H86.1997L95.9705 32.9711H101.85L111.711 9.90312H105.061L99.1355 24.9207Z" fill="#1E1E1E"/>
<path d="M114.627 32.9712H120.734V20.0354H133.715V14.2457H120.734V6.37542H135.162V0.585743H114.627V32.9712Z" fill="#1E1E1E"/>
<path d="M155.042 10.7633C153.353 9.70708 151.273 9.17938 148.8 9.18019C146.508 9.18019 144.473 9.74548 142.694 10.876C140.929 11.9906 139.481 13.5405 138.488 15.3767C137.462 17.2471 136.932 19.3492 136.949 21.4825C136.949 23.8351 137.469 25.9308 138.51 27.7697C139.521 29.5806 141.007 31.0819 142.807 32.1122C144.63 33.1684 146.703 33.6966 149.025 33.6966C151.589 33.6966 153.745 33.1464 155.494 32.046C157.264 30.9231 158.725 29.3762 159.746 27.5454L154.951 25.1928C154.396 26.1398 153.621 26.9385 152.69 27.5209C151.725 28.1401 150.533 28.4493 149.116 28.4485C147.968 28.4638 146.837 28.175 145.837 27.6116C144.842 27.0386 144.034 26.1907 143.509 25.1695C143.129 24.4418 142.877 23.6543 142.764 22.8414H160.064C160.094 22.6907 160.124 22.4419 160.154 22.0952C160.183 21.7484 160.199 21.333 160.199 20.8502C160.199 18.7092 159.762 16.7568 158.888 14.9932C158.031 13.2483 156.698 11.7818 155.042 10.7633ZM142.996 18.6336C143.114 18.2201 143.271 17.8186 143.464 17.434C143.967 16.4087 144.741 15.5408 145.702 14.9245C146.641 14.3247 147.733 14.0101 148.847 14.019C149.644 14.0047 150.435 14.151 151.175 14.4491C151.816 14.7106 152.405 15.084 152.916 15.5519C153.379 15.9785 153.762 16.4843 154.047 17.0456C154.304 17.537 154.458 18.0757 154.499 18.6287L142.996 18.6336Z" fill="#1E1E1E"/>
<path d="M175.473 19.2217L172.082 18.4069C171.305 18.2268 170.569 17.9049 169.91 17.4573C169.307 17.0358 169.005 16.5383 169.005 15.9648C169.005 15.4224 169.307 14.9547 169.91 14.5618C170.514 14.1689 171.328 13.9728 172.352 13.9737C173.204 13.9689 174.047 14.1544 174.818 14.5165C175.587 14.8792 176.213 15.5127 176.695 16.417L181.76 14.2004C181.258 13.1069 180.516 12.1407 179.589 11.3735C178.641 10.6123 177.549 10.0509 176.379 9.723C175.023 9.34468 173.62 9.1619 172.213 9.18018C170.656 9.16059 169.111 9.45221 167.668 10.0379C166.294 10.6097 165.208 11.4086 164.411 12.4347C163.614 13.4607 163.215 14.6664 163.214 16.0518C163.192 17.2124 163.514 18.3535 164.14 19.3308C164.762 20.2871 165.59 21.0925 166.563 21.6883C167.535 22.2984 168.607 22.7345 169.729 22.9774L172.443 23.5655C173.07 23.6851 173.69 23.8439 174.297 24.041C174.851 24.2102 175.366 24.4867 175.813 24.8546C176.221 25.2026 176.425 25.6776 176.425 26.2796C176.425 27.1243 176.034 27.7047 175.25 28.0208C174.415 28.3473 173.524 28.5088 172.627 28.4963C171.451 28.4963 170.425 28.2173 169.55 27.6594C168.675 27.1014 167.981 26.2796 167.467 25.194L162.175 27.5013C162.614 28.6447 163.276 29.69 164.121 30.5769C164.994 31.513 166.132 32.267 167.536 32.8388C168.939 33.4106 170.635 33.6966 172.624 33.6966C174.433 33.6966 176.076 33.3874 177.554 32.769C179.032 32.1506 180.208 31.2761 181.083 30.1456C181.957 29.015 182.394 27.6957 182.394 26.1877C182.407 25.3847 182.26 24.5871 181.961 23.8416C181.662 23.0962 181.217 22.4179 180.653 21.8464C179.491 20.6399 177.765 19.765 175.473 19.2217Z" fill="#1E1E1E"/>
<path d="M198.357 27.5699C197.917 27.7081 197.459 27.7767 196.999 27.7733C195.975 27.7733 195.236 27.5094 194.784 26.9817C194.331 26.454 194.105 25.6322 194.105 24.5163V14.9698H199.758V9.90308H194.105V3.39046H188.179V9.90308H184.154V14.9698H188.179V25.5983C188.179 28.0122 188.857 29.9045 190.214 31.2753C191.571 32.646 193.441 33.3322 195.824 33.3338C196.53 33.3351 197.234 33.2669 197.927 33.1304C198.611 32.9933 199.284 32.804 199.94 32.5643V26.7746C199.444 27.0999 198.913 27.3668 198.357 27.5699Z" fill="#1E1E1E"/>
</svg>
